<?xml version="1.0" encoding="utf-8"?>
<!-- Generator: Adobe Illustrator 22.1.0, SVG Export Plug-In . SVG Version: 6.00 Build 0)  -->
<svg version="1.1" id="Layer_1" xmlns="http://www.w3.org/2000/svg" xmlns:xlink="http://www.w3.org/1999/xlink" x="0px" y="0px"
	 viewBox="0 0 40 40" style="enable-background:new 0 0 40 40;" xml:space="preserve">
<style type="text/css">
	.st0{fill:#FFFFFF;}
</style>
<path class="st0" d="M26.4,15.1L15.1,26.4c-0.4,0.4-1,0.4-1.4,0c-0.4-0.4-0.4-1,0-1.4l11.3-11.3c0.4-0.4,1-0.4,1.4,0
	C26.8,14.1,26.8,14.6,26.4,15.1z"/>
<path class="st0" d="M13.6,13.6c0.4-0.4,1-0.4,1.4,0l11.3,11.3c0.4,0.4,0.4,1,0,1.4c-0.4,0.4-1,0.4-1.4,0L13.6,15.1
	C13.2,14.6,13.2,14.1,13.6,13.6z"/>
</svg>
