<?xml version="1.0" encoding="utf-8"?>
<!-- Generator: Adobe Illustrator 21.1.0, SVG Export Plug-In . SVG Version: 6.00 Build 0)  -->
<svg version="1.1" id="Layer_1" xmlns="http://www.w3.org/2000/svg" xmlns:xlink="http://www.w3.org/1999/xlink" x="0px" y="0px"
	 viewBox="0 0 24 24" style="enable-background:new 0 0 24 24;" xml:space="preserve">
<style type="text/css">
	.st0{fill:#FFFFFF;}
</style>
<title  id="simpleicons-mailru-icon">Mail.Ru icon</title>
<path class="st0" d="M11.8,8.4c1,0,1.9,0.4,2.6,1.1v0c0-0.3,0.2-0.6,0.5-0.6H15c0.5,0,0.6,0.5,0.6,0.6l0,5.1c0,0.3,0.3,0.5,0.6,0.3
	c0.8-0.8,1.8-4.3-0.5-6.4C13.5,6.7,10.6,7,9,8c-1.6,1.1-2.7,3.6-1.7,6c1.1,2.6,4.3,3.3,6.2,2.6c1-0.4,1.4,0.9,0.4,1.3
	c-1.5,0.6-5.7,0.6-7.6-2.8C5,12.8,5.1,8.8,8.6,6.7c2.7-1.6,6.2-1.1,8.3,1.1c2.2,2.3,2.1,6.6-0.1,8.3c-1,0.8-2.4,0-2.4-1.1l0-0.4
	c-0.7,0.7-1.6,1.1-2.6,1.1c-2,0-3.7-1.7-3.7-3.7C8.1,10.1,9.8,8.4,11.8,8.4z M14.2,11.9c-0.1-1.4-1.1-2.3-2.4-2.3h0
	c-1.5,0-2.3,1.2-2.3,2.5c0,1.5,1,2.4,2.3,2.4c1.5,0,2.4-1.1,2.5-2.3L14.2,11.9z"/>
</svg>
