<?xml version="1.0" encoding="UTF-8"?>
<svg width="40px" height="40px" viewBox="0 0 40 40" version="1.1" xmlns="http://www.w3.org/2000/svg" xmlns:xlink="http://www.w3.org/1999/xlink">
    <!-- Generator: Sketch 48.2 (47327) - http://www.bohemiancoding.com/sketch -->
    <title>Slice 1</title>
    <desc>Created with Sketch.</desc>
    <defs></defs>
    <g id="Page-1" stroke="none" stroke-width="1" fill="none" fill-rule="evenodd">
        <g id="Github" fill="#191717" fill-rule="nonzero">
            <path d="M19.9664264,0 C8.92539504,0 1.31672332e-05,8.92538182 1.31672332e-05,19.9664132 C1.31672332e-05,28.7926249 5.71886942,36.2634989 13.6525422,38.9080567 C14.6442512,39.106398 15.0078777,38.4783151 15.0078777,37.949404 C15.0078777,37.486606 14.9748231,35.8998727 14.9748231,34.2470249 C9.42124958,35.4370744 8.26425784,31.8669222 8.26425784,31.8669222 C7.371719,29.5529356 6.04943802,28.9579073 6.04943802,28.9579073 C4.23130578,27.7348 6.18166611,27.7348 6.18166611,27.7348 C8.19814216,27.867028 9.25596693,29.7843338 9.25596693,29.7843338 C11.0410413,32.8255736 13.9169984,31.9660927 15.0739934,31.4371802 C15.239276,30.1479602 15.7681884,29.2554216 16.3301587,28.7595669 C11.9005223,28.2967702 7.23949091,26.5778082 7.23949091,18.9085884 C7.23949091,16.7268298 8.0328562,14.9417521 9.28902149,13.5533587 C9.090681,13.0575041 8.39648264,11.0079702 9.48736529,8.26424462 C9.48736529,8.26424462 11.1732694,7.73533222 14.9748231,10.3137752 C16.561557,9.88403636 18.280519,9.65263802 19.9664264,9.65263802 C21.6523306,9.65263802 23.3712958,9.88403636 24.9580298,10.3137752 C28.7595802,7.73533222 30.4454842,8.26424462 30.4454842,8.26424462 C31.5363669,11.0079702 30.8421687,13.0575041 30.643828,13.5533587 C31.933048,14.9417521 32.6933587,16.7268264 32.6933587,18.9085884 C32.6933587,26.5778082 28.032324,28.2637124 23.5696331,28.7595669 C24.296886,29.3876496 24.9249687,30.5776991 24.9249687,32.4619471 C24.9249687,35.1395602 24.891914,37.2882644 24.891914,37.949404 C24.891914,38.4783151 25.2555404,39.106398 26.2472496,38.9080567 C34.1809256,36.2634989 39.8997687,28.7926249 39.8997687,19.9664099 C39.9328264,8.92538182 30.9743967,0 19.9664264,0 Z" id="Fill-1"></path>
        </g>
    </g>
</svg>