<?xml version="1.0" encoding="utf-8"?>
<!-- Generator: Adobe Illustrator 22.1.0, SVG Export Plug-In . SVG Version: 6.00 Build 0)  -->
<svg version="1.1" id="Layer_1" xmlns="http://www.w3.org/2000/svg" xmlns:xlink="http://www.w3.org/1999/xlink" x="0px" y="0px"
	 viewBox="0 0 40 40" style="enable-background:new 0 0 40 40;" xml:space="preserve">
<style type="text/css">
	.st0{fill:#FFFFFF;}
</style>
<g id="XMLID_122_">
	<g>
		<path class="st0" d="M27.9,18.4c0.1-0.5,0.1-1,0.1-1.6c0-2.5-1.2-3.4-1.4-3.8c0.3-1.9-0.1-2.7-0.2-3c-0.7-0.2-2.3,0.6-3.2,1.2
			c-1.5-0.4-4.6-0.4-5.8,0.1c-2.2-1.6-3.3-1.3-3.3-1.3s-0.7,1.3-0.2,3.3c-0.7,0.9-1.2,1.6-1.2,3.3c0,0.4,0,0.8,0.1,1.2
			c0.6,3.2,3.2,4.6,5.7,4.9c-0.4,0.3-0.8,0.8-0.9,1.5c-0.5,0.3-1.4,0.4-2.2,0.2c-1-0.3-1.4-2.4-3-2.1c-0.3,0.1-0.3,0.3,0,0.5
			c0.5,0.3,0.9,0.7,1.3,1.5c0.3,0.6,0.8,1.8,2.6,1.8c0.7,0,1.2-0.1,1.2-0.1s0,1.6,0,2.2c0,0.7-1,0.9-1,1.3c0,0.1,0.3,0.2,0.6,0.2
			c0.5,0,1.6-0.4,1.6-1.2c0-0.6,0-2.6,0-2.9c0-0.8,0.4-1,0.4-1s0.1,4.1-0.1,4.6c-0.2,0.6-0.5,0.6-0.5,0.8c0,0.4,1.3,0.1,1.7-0.8
			c0.3-0.7,0.2-4.7,0.2-4.7l0.3,0c0,0,0,1.8,0,2.7c0,0.9-0.1,2,0.4,2.5c0.3,0.3,1.4,0.9,1.4,0.4c0-0.3-0.7-0.6-0.7-1.4v-4
			c0.4,0,0.5,1.3,0.5,1.3l0.2,2.4c0,0-0.1,0.9,1,1.2c0.4,0.1,1.2,0.2,1.2-0.1c0-0.2-1-0.5-1-1.2c0-0.4,0-0.7,0-2.5
			c0-1.8-0.2-2.5-1.1-3C24.9,22.4,27.4,21.3,27.9,18.4z"/>
	</g>
</g>
</svg>
