<?xml version="1.0" encoding="utf-8"?>
<!-- Generator: Adobe Illustrator 22.1.0, SVG Export Plug-In . SVG Version: 6.00 Build 0)  -->
<svg version="1.1" id="Layer_1" xmlns="http://www.w3.org/2000/svg" xmlns:xlink="http://www.w3.org/1999/xlink" x="0px" y="0px"
	 viewBox="0 0 1056 1010" style="enable-background:new 0 0 1056 1010;" xml:space="preserve">
<style type="text/css">
	.st0{fill:#FFD64F;}
	.st1{fill:#28AAE1;}
	.st2{fill:#343C3E;}
</style>
<g>
	<g>
		<g>
			<path class="st0" d="M984.4,393.6c-18.3,0-36.7-7-50.6-20.9L708.1,147c-9.3-9.3-24.4-9.3-33.8,0c-4.5,4.5-7,10.5-7,16.9
				c0,6.4,2.5,12.4,7,16.9l140.2,140.2c9.3,9.3,9.3,24.4,0,33.8c-9.3,9.3-24.4,9.3-33.8,0L640.6,214.5c-27.9-27.9-27.9-73.3,0-101.3
				c27.9-27.9,73.3-27.9,101.3,0l225.7,225.7c9.3,9.3,24.4,9.3,33.8,0c4.5-4.5,7-10.5,7-16.9c0-6.4-2.5-12.4-7-16.9l-52.6-52.6
				c-9.3-9.3-9.3-24.4,0-33.8c9.3-9.3,24.4-9.3,33.8,0l52.6,52.6c13.5,13.5,21,31.5,21,50.6s-7.4,37.1-21,50.6
				C1021.1,386.6,1002.7,393.6,984.4,393.6z"/>
			<path class="st1" d="M960.8,640c-18.3,0-36.7-7-50.6-20.9l-75.4-75.4c-9.3-9.3-9.3-24.4,0-33.8c9.3-9.3,24.4-9.3,33.8,0
				l75.4,75.4c9.3,9.3,24.4,9.3,33.8,0c4.5-4.5,7-10.5,7-16.9c0-6.4-2.5-12.4-7-16.9l-127-127c-9.3-9.3-9.3-24.4,0-33.8
				c9.3-9.3,24.4-9.3,33.8,0l127,127c27.9,27.9,27.9,73.3,0,101.3C997.4,633,979.1,640,960.8,640z"/>
			<path class="st1" d="M646.8,345.8c-6.1,0-12.2-2.3-16.9-7L477.6,186.5c-9.3-9.3-24.4-9.3-33.8,0c-9.3,9.3-9.3,24.4,0,33.8
				l70.8,70.8c9.3,9.3,9.3,24.4,0,33.8c-9.3,9.3-24.4,9.3-33.8,0L410.1,254c-27.9-27.9-27.9-73.3,0-101.3
				c27.9-27.9,73.3-27.9,101.3,0L663.6,305c9.3,9.3,9.3,24.4,0,33.8C659,343.4,652.9,345.8,646.8,345.8z"/>
			<path class="st0" d="M857.6,806.8c-18.3,0-36.7-7-50.6-20.9L738.1,717c-9.3-9.3-9.3-24.4,0-33.8c9.3-9.3,24.4-9.3,33.8,0
				l68.8,68.8c4.5,4.5,10.5,7,16.9,7c6.4,0,12.4-2.5,16.9-7c9.3-9.3,9.3-24.4,0-33.8l-71.6-71.6c-9.3-9.3-9.3-24.4,0-33.8
				c9.3-9.3,24.4-9.3,33.8,0l71.6,71.6c27.9,27.9,27.9,73.3,0,101.3C894.2,799.8,875.9,806.8,857.6,806.8z"/>
			<path class="st0" d="M241.7,345.8c-6.1,0-12.2-2.3-16.9-7l-29.3-29.3c-27.9-27.9-27.9-73.3,0-101.3c27.9-27.9,73.3-27.9,101.3,0
				l80.9,80.9c9.3,9.3,9.3,24.4,0,33.8c-9.3,9.3-24.4,9.3-33.8,0L263,242c-9.3-9.3-24.4-9.3-33.8,0c-9.3,9.3-9.3,24.4,0,33.8
				l29.3,29.3c9.3,9.3,9.3,24.4,0,33.8C253.9,343.4,247.8,345.8,241.7,345.8z"/>
			<path class="st1" d="M674.8,894.1c-19.1,0-37.1-7.4-50.6-21l-85.6-85.6c-9.3-9.3-9.3-24.4,0-33.8c9.3-9.3,24.4-9.3,33.8,0
				l85.6,85.6c4.5,4.5,10.5,7,16.9,7c6.4,0,12.4-2.5,16.9-7c9.3-9.3,9.3-24.4,0-33.8l-18.1-18.1c-9.3-9.3-9.3-24.4,0-33.8
				c9.3-9.3,24.4-9.3,33.8,0l18.1,18.1c27.9,27.9,27.9,73.3,0,101.3C711.9,886.7,693.9,894.1,674.8,894.1z"/>
			<path class="st1" d="M236.2,610.3c-6.1,0-12.2-2.3-16.9-7L28.7,412.7c-27.9-27.9-27.9-73.3,0-101.3c27.9-27.9,73.3-27.9,101.3,0
				l123.2,123.2c9.3,9.3,9.3,24.4,0,33.8c-9.3,9.3-24.4,9.3-33.8,0L96.2,345.2c-9.3-9.3-24.4-9.3-33.8,0c-9.3,9.3-9.3,24.4,0,33.8
				l190.7,190.7c9.3,9.3,9.3,24.4,0,33.8C248.5,608,242.3,610.3,236.2,610.3z"/>
			<path class="st0" d="M412.5,901.8c-18.3,0-36.7-7-50.6-20.9L175.3,694.3c-9.3-9.3-9.3-24.4,0-33.8c9.3-9.3,24.4-9.3,33.8,0
				l186.6,186.6c9.3,9.3,24.4,9.3,33.8,0c9.3-9.3,9.3-24.4,0-33.8l-25.9-25.9c-9.3-9.3-9.3-24.4,0-33.8c9.3-9.3,24.4-9.3,33.8,0
				l25.9,25.9c27.9,27.9,27.9,73.3,0,101.3C449.2,894.8,430.9,901.8,412.5,901.8z"/>
			<path class="st1" d="M154.1,798.2c-6.1,0-12.2-2.3-16.9-7L21,675C-7,647-7,601.6,21,573.7c27.9-27.9,73.3-27.9,101.3,0l19.5,19.5
				c9.3,9.3,9.3,24.4,0,33.8c-9.3,9.3-24.4,9.3-33.8,0l-19.5-19.5c-9.3-9.3-24.4-9.3-33.8,0c-9.3,9.3-9.3,24.4,0,33.8l116.2,116.2
				c9.3,9.3,9.3,24.4,0,33.8C166.3,795.9,160.2,798.2,154.1,798.2z"/>
		</g>
		<g>
			<path class="st1" d="M297.5,924.8l28.6,28.6c8.3,8.3,26.8,28.8,17.2,56.3c0,0,17.6-29.2-13.4-60.1c31,31,60.1,13.4,60.1,13.4
				c-27.5,9.6-48-8.9-56.3-17.2l-28.6-28.6l-9-1.3L297.5,924.8z"/>
			<g>
				<path class="st0" d="M201.8,822.1c-9.6,10-9.5,25.9,0.3,35.8c5.2,4.3,9,9.9,11,16.3l2.4,7.6c5.3,16.9,17.7,30.7,34,37.7
					c0,0,17.5,8.3,28.5,13.6c13.7,6.6,23.8,6,32.7-2.9c8.9-8.9,9.5-19,2.9-32.7c-5.3-10.9-13.6-28.5-13.6-28.5
					c-7-16.3-20.7-28.7-37.7-34l-7.6-2.4c-6.4-2-12.1-5.8-16.3-11c-9.9-9.9-25.8-10-35.8-0.3c-0.1,0.1-0.2,0.2-0.3,0.4
					S201.9,821.9,201.8,822.1z"/>
			</g>
			<g>
				<circle class="st1" cx="262.7" cy="920.8" r="12.8"/>
				<circle class="st1" cx="301.2" cy="882.3" r="12.8"/>
				<path class="st0" d="M237.2,920.8h38.3v-21.8h-24.6c-7.6,0-13.7,6.1-13.7,13.7V920.8z"/>
				<path class="st0" d="M301.2,856.8v38.3h-21.8v-24.6c0-7.6,6.1-13.7,13.7-13.7H301.2z"/>
			</g>
		</g>
		<g>
			<path class="st0" d="M822.1,85.2l-28.6-28.6c-8.3-8.3-26.8-28.8-17.2-56.3c0,0-17.6,29.2,13.4,60.1c-31-31-60.1-13.4-60.1-13.4
				c27.5-9.6,48,8.9,56.3,17.2l28.6,28.6l9,1.3L822.1,85.2z"/>
			<g>
				<path class="st1" d="M917.8,187.9c9.6-10,9.5-25.9-0.3-35.8c-5.2-4.3-9-9.9-11-16.3l-2.4-7.6c-5.3-16.9-17.7-30.7-34-37.7
					c0,0-17.5-8.3-28.5-13.6c-13.7-6.6-23.8-6-32.7,2.9c-8.9,8.9-9.5,19-2.9,32.7c5.3,10.9,13.6,28.5,13.6,28.5
					c7,16.3,20.7,28.7,37.7,34l7.6,2.4c6.4,2,12.1,5.8,16.3,11c9.9,9.9,25.8,10,35.8,0.3c0.1-0.1,0.2-0.2,0.3-0.4
					C917.6,188.2,917.7,188.1,917.8,187.9z"/>
			</g>
			<g>
				<circle class="st0" cx="856.9" cy="89.2" r="12.8"/>
				<circle class="st0" cx="818.4" cy="127.7" r="12.8"/>
				<path class="st1" d="M882.4,89.2h-38.3v21.8h24.6c7.6,0,13.7-6.1,13.7-13.7V89.2z"/>
				<path class="st1" d="M818.4,153.2v-38.3h21.8v24.6c0,7.6-6.1,13.7-13.7,13.7H818.4z"/>
			</g>
		</g>
	</g>
	<g>
		<g>
			<path class="st2" d="M331.6,452.9V494h-28.5V371.1h43.4c8.7,0,16.1,1,22.3,3.1c6.2,2.1,11.3,4.9,15.4,8.5c4,3.6,7,7.8,8.9,12.7
				c1.9,4.9,2.9,10.2,2.9,15.9c0,6.1-1,11.8-3,16.9c-2,5.1-5,9.5-9,13.2c-4,3.7-9.2,6.5-15.4,8.6c-6.2,2.1-13.6,3.1-22.1,3.1H331.6z
				 M331.6,431.4h14.8c7.4,0,12.8-1.8,16-5.3c3.3-3.5,4.9-8.5,4.9-14.8c0-2.8-0.4-5.4-1.3-7.7c-0.8-2.3-2.1-4.3-3.8-5.9
				c-1.7-1.7-3.9-2.9-6.5-3.8c-2.6-0.9-5.7-1.3-9.3-1.3h-14.8V431.4z"/>
			<path class="st2" d="M452.5,516.7c-0.8,1.7-1.7,3-2.9,3.8c-1.1,0.8-2.9,1.2-5.4,1.2h-19.6l16.9-35.4l-34.9-79.8h23.1
				c2,0,3.6,0.5,4.7,1.3c1.1,0.9,1.9,2,2.4,3.2l14.3,37.7c1.3,3.5,2.4,7,3.3,10.5c0.6-1.8,1.2-3.6,1.9-5.3c0.7-1.7,1.3-3.5,1.9-5.3
				l13-37.5c0.4-1.3,1.3-2.4,2.7-3.2c1.3-0.9,2.7-1.3,4.3-1.3h21.1L452.5,516.7z"/>
			<path class="st2" d="M594.2,462.2c0.7,0,1.3,0.1,2,0.4c0.7,0.3,1.3,0.7,1.9,1.3l11.3,11.9c-4.9,6.5-11.1,11.3-18.6,14.6
				c-7.5,3.3-16.3,4.9-26.4,4.9c-9.3,0-17.7-1.6-25.1-4.8c-7.4-3.2-13.7-7.6-18.8-13.2c-5.1-5.6-9.1-12.2-11.9-19.9
				c-2.8-7.7-4.1-16-4.1-25c0-9.2,1.6-17.6,4.7-25.3c3.1-7.7,7.6-14.3,13.2-19.9c5.7-5.6,12.4-9.9,20.3-13
				c7.9-3.1,16.6-4.6,26.1-4.6c4.6,0,9,0.4,13,1.2c4.1,0.8,7.9,1.9,11.4,3.4c3.5,1.4,6.8,3.2,9.8,5.1c3,2,5.6,4.2,7.9,6.6l-9.6,12.9
				c-0.6,0.8-1.3,1.5-2.2,2.2c-0.8,0.6-2,1-3.5,1c-1,0-2-0.2-2.9-0.7c-0.9-0.4-1.9-1-2.9-1.6c-1-0.6-2.1-1.3-3.3-2.1
				c-1.2-0.8-2.6-1.5-4.3-2.1c-1.7-0.6-3.6-1.2-5.8-1.6c-2.2-0.4-4.8-0.7-7.8-0.7c-5.2,0-9.9,0.9-14.2,2.7c-4.3,1.8-7.9,4.4-11,7.8
				c-3.1,3.4-5.5,7.5-7.2,12.4c-1.7,4.8-2.6,10.3-2.6,16.3c0,6.3,0.9,11.9,2.6,16.8c1.7,4.9,4,9,7,12.4c3,3.3,6.4,5.9,10.3,7.6
				s8.2,2.6,12.7,2.6c2.6,0,4.9-0.1,7.1-0.4c2.1-0.3,4.1-0.7,5.9-1.3c1.8-0.6,3.6-1.4,5.2-2.4c1.7-1,3.3-2.2,5-3.7
				c0.7-0.6,1.4-1,2.2-1.4C592.5,462.4,593.3,462.2,594.2,462.2z"/>
			<path class="st2" d="M658.4,405.2c6.6,0,12.7,1,18.1,3.1c5.5,2.1,10.1,5.1,14,8.9c3.9,3.9,6.9,8.6,9.1,14.1
				c2.2,5.5,3.2,11.8,3.2,18.7c0,7-1.1,13.3-3.2,18.9c-2.2,5.6-5.2,10.3-9.1,14.3c-3.9,3.9-8.6,6.9-14,9c-5.5,2.1-11.5,3.2-18.1,3.2
				c-6.7,0-12.8-1.1-18.3-3.2c-5.5-2.1-10.2-5.1-14.2-9c-4-3.9-7-8.7-9.2-14.3c-2.2-5.6-3.2-11.9-3.2-18.9c0-6.9,1.1-13.1,3.2-18.7
				c2.2-5.5,5.2-10.2,9.2-14.1c4-3.9,8.7-6.9,14.2-8.9C645.6,406.2,651.7,405.2,658.4,405.2z M658.4,476c6,0,10.4-2.1,13.3-6.4
				c2.8-4.2,4.3-10.7,4.3-19.4c0-8.7-1.4-15.1-4.3-19.3c-2.8-4.2-7.3-6.3-13.3-6.3c-6.2,0-10.7,2.1-13.6,6.3
				c-2.9,4.2-4.3,10.7-4.3,19.3c0,8.7,1.4,15.1,4.3,19.4C647.6,473.8,652.2,476,658.4,476z"/>
			<path class="st2" d="M714.2,494v-87.5h16.2c1.6,0,3,0.4,4.1,1.1c1.1,0.7,1.9,1.8,2.3,3.3l1.5,5.1c1.7-1.6,3.4-3,5.2-4.4
				c1.8-1.3,3.7-2.5,5.8-3.4c2.1-0.9,4.3-1.7,6.7-2.2c2.4-0.5,5-0.8,7.8-0.8c4.8,0,9,0.8,12.7,2.5c3.7,1.7,6.8,4,9.3,6.9
				c2.5,3,4.4,6.5,5.7,10.5c1.3,4.1,1.9,8.5,1.9,13.3V494h-26.1v-55.6c0-4.3-1-7.6-3-10c-2-2.4-4.9-3.6-8.7-3.6
				c-2.9,0-5.6,0.6-8.1,1.9c-2.5,1.2-4.9,2.9-7.3,5V494H714.2z"/>
		</g>
		<g>
			<path class="st2" d="M343.5,512c7.8,0,14.4,0.7,19.9,2.2c5.5,1.5,10,3.6,13.6,6.4c3.5,2.8,6.1,6.1,7.8,10.1
				c1.7,4,2.5,8.4,2.5,13.4c0,2.9-0.4,5.6-1.3,8.3c-0.9,2.7-2.2,5.2-4,7.5c-1.8,2.3-4.1,4.4-6.9,6.3c-2.8,1.9-6,3.4-9.8,4.6
				c17.2,3.7,25.8,12.8,25.8,27.4c0,5.2-1,9.9-2.9,14.2c-1.9,4.3-4.8,8-8.4,11.1c-3.7,3.1-8.2,5.6-13.6,7.3
				c-5.4,1.7-11.6,2.6-18.5,2.6h-44.5V512H343.5z M322.8,527.5v38h19.7c8.4,0,14.7-1.6,18.9-4.9c4.2-3.3,6.2-8,6.2-14.1
				c0-6.7-2-11.5-5.9-14.5c-3.9-3-10-4.5-18.3-4.5H322.8z M347.3,617.9c4.4,0,8.2-0.5,11.3-1.6c3.1-1,5.6-2.5,7.5-4.3
				c1.9-1.8,3.3-3.9,4.2-6.4c0.9-2.4,1.3-5.1,1.3-7.9c0-5.7-2-10.2-5.9-13.5c-3.9-3.3-10.1-4.9-18.5-4.9h-24.4v38.5H347.3z"/>
			<path class="st2" d="M404.9,559.4c9.7-9.1,21.3-13.6,34.8-13.6c4.9,0,9.3,0.8,13.2,2.4c3.9,1.6,7.1,3.9,9.7,6.8
				c2.6,2.9,4.6,6.4,6,10.4c1.4,4,2.1,8.5,2.1,13.4v54.7h-8.1c-1.7,0-3.1-0.3-4-0.8c-0.9-0.5-1.7-1.6-2.3-3.2l-1.8-7
				c-2.2,2-4.4,3.7-6.5,5.3c-2.1,1.5-4.3,2.9-6.6,3.9c-2.3,1.1-4.7,1.9-7.3,2.4c-2.6,0.5-5.5,0.8-8.6,0.8c-3.5,0-6.7-0.5-9.7-1.4
				c-3-1-5.6-2.4-7.8-4.3c-2.2-1.9-3.9-4.3-5.2-7.2c-1.3-2.9-1.9-6.2-1.9-10.1c0-3.3,0.9-6.5,2.7-9.7c1.8-3.1,4.7-6,8.8-8.5
				c4.1-2.5,9.4-4.6,16.1-6.2c6.7-1.6,14.9-2.6,24.7-2.8v-5.7c0-6.2-1.3-10.8-4-13.8c-2.6-3-6.5-4.6-11.6-4.6
				c-3.5,0-6.4,0.4-8.8,1.3c-2.4,0.9-4.4,1.8-6.2,2.8c-1.7,1-3.3,2-4.6,2.8c-1.3,0.9-2.8,1.3-4.3,1.3c-1.2,0-2.3-0.3-3.2-1
				c-0.9-0.6-1.6-1.4-2.2-2.4L404.9,559.4z M453,595.9c-6.5,0.2-11.9,0.7-16.4,1.6c-4.4,0.8-8,1.9-10.8,3.1
				c-2.8,1.3-4.7,2.8-5.9,4.5c-1.2,1.7-1.8,3.7-1.8,5.7c0,2,0.3,3.8,1,5.2c0.6,1.4,1.5,2.6,2.7,3.5c1.2,0.9,2.5,1.6,4,2
				c1.5,0.4,3.2,0.6,5.1,0.6c4.7,0,8.8-0.9,12.2-2.7c3.4-1.8,6.7-4.3,9.9-7.7V595.9z"/>
			<path class="st2" d="M499.6,508.6v124.8h-18.1V508.6H499.6z"/>
			<path class="st2" d="M528.1,508.6V581h3.9c1.2,0,2.2-0.2,3-0.5c0.8-0.3,1.6-1,2.4-2.1l24.1-27.6c0.8-1.1,1.8-2,2.8-2.5
				s2.3-0.8,3.9-0.8h16.4l-29,32.7c-1.7,2.2-3.5,3.9-5.6,5.2c1.1,0.8,2.1,1.7,3,2.7c0.8,1,1.7,2.1,2.4,3.3l31,42.1h-16.2
				c-1.5,0-2.7-0.2-3.8-0.7c-1-0.5-2-1.4-2.7-2.7l-24.9-33.7c-0.8-1.3-1.7-2.1-2.5-2.5c-0.8-0.4-2.1-0.5-3.8-0.5h-4.5v40.2h-18.1
				V508.6H528.1z"/>
			<path class="st2" d="M591.3,559.4c9.7-9.1,21.3-13.6,34.8-13.6c4.9,0,9.3,0.8,13.2,2.4c3.9,1.6,7.1,3.9,9.7,6.8
				c2.6,2.9,4.6,6.4,6,10.4c1.4,4,2.1,8.5,2.1,13.4v54.7h-8.1c-1.7,0-3.1-0.3-4-0.8c-0.9-0.5-1.7-1.6-2.3-3.2l-1.8-7
				c-2.2,2-4.4,3.7-6.5,5.3c-2.1,1.5-4.3,2.9-6.6,3.9c-2.3,1.1-4.7,1.9-7.3,2.4s-5.5,0.8-8.6,0.8c-3.5,0-6.7-0.5-9.7-1.4
				c-3-1-5.6-2.4-7.8-4.3c-2.2-1.9-3.9-4.3-5.2-7.2c-1.3-2.9-1.9-6.2-1.9-10.1c0-3.3,0.9-6.5,2.7-9.7c1.8-3.1,4.7-6,8.8-8.5
				c4.1-2.5,9.4-4.6,16.1-6.2c6.7-1.6,14.9-2.6,24.7-2.8v-5.7c0-6.2-1.3-10.8-4-13.8c-2.6-3-6.5-4.6-11.6-4.6
				c-3.5,0-6.4,0.4-8.8,1.3c-2.4,0.9-4.4,1.8-6.2,2.8c-1.7,1-3.3,2-4.6,2.8c-1.3,0.9-2.8,1.3-4.3,1.3c-1.2,0-2.3-0.3-3.2-1
				c-0.9-0.6-1.6-1.4-2.2-2.4L591.3,559.4z M639.4,595.9c-6.5,0.2-11.9,0.7-16.4,1.6c-4.4,0.8-8,1.9-10.8,3.1
				c-2.8,1.3-4.7,2.8-5.9,4.5c-1.2,1.7-1.8,3.7-1.8,5.7c0,2,0.3,3.8,1,5.2c0.6,1.4,1.5,2.6,2.7,3.5c1.2,0.9,2.5,1.6,4,2
				c1.5,0.4,3.2,0.6,5.1,0.6c4.7,0,8.8-0.9,12.2-2.7c3.4-1.8,6.7-4.3,9.9-7.7V595.9z"/>
			<path class="st2" d="M684.5,558.8c1.9-1.9,3.8-3.6,5.8-5.2c2-1.5,4.1-2.9,6.4-4c2.2-1.1,4.6-2,7.2-2.6c2.5-0.6,5.3-0.9,8.3-0.9
				c4.7,0,8.9,0.8,12.4,2.4c3.6,1.6,6.6,3.8,9,6.7c2.4,2.9,4.3,6.3,5.5,10.3c1.2,4,1.9,8.4,1.9,13.3v54.7h-18.1v-54.7
				c0-5.8-1.3-10.3-4-13.5c-2.7-3.2-6.7-4.8-12.2-4.8c-4,0-7.8,0.9-11.3,2.8c-3.5,1.9-6.7,4.4-9.7,7.6v62.7h-18.1v-86h11
				c2.5,0,4,1.2,4.7,3.5L684.5,558.8z"/>
		</g>
		<g>
			<path class="st2" d="M303.1,702.9v-45.8h14.6c2.8,0,5.2,0.3,7.3,0.8c2,0.6,3.7,1.3,5,2.4c1.3,1,2.3,2.3,2.9,3.8
				c0.6,1.5,0.9,3.1,0.9,5c0,1.1-0.2,2.2-0.5,3.3c-0.4,1-0.9,2-1.6,2.9c-0.7,0.9-1.6,1.7-2.7,2.4c-1.1,0.7-2.3,1.3-3.8,1.7
				c3.3,0.7,5.9,1.9,7.6,3.6c1.7,1.7,2.6,4,2.6,6.9c0,1.9-0.4,3.7-1.1,5.3c-0.7,1.6-1.8,3-3.1,4.1c-1.4,1.1-3.1,2-5,2.7
				c-2,0.6-4.3,0.9-6.8,0.9H303.1z M309.3,677.7h8.2c1.7,0,3.3-0.2,4.5-0.6c1.3-0.4,2.3-0.9,3.2-1.6c0.8-0.7,1.5-1.5,1.9-2.5
				c0.4-1,0.6-2,0.6-3.2c0-2.7-0.8-4.7-2.4-5.9c-1.6-1.3-4.1-1.9-7.5-1.9h-8.4V677.7z M309.3,682.1V698h9.9c1.8,0,3.3-0.2,4.6-0.6
				c1.3-0.4,2.3-1,3.1-1.7c0.8-0.7,1.4-1.6,1.8-2.6c0.4-1,0.6-2.1,0.6-3.3c0-2.4-0.8-4.2-2.5-5.6c-1.7-1.4-4.2-2.1-7.6-2.1H309.3z"
				/>
			<path class="st2" d="M354.7,670.1c1.9,0,3.7,0.3,5.4,1c1.6,0.6,3.1,1.6,4.2,2.8c1.2,1.2,2.1,2.7,2.8,4.5c0.7,1.8,1,3.8,1,6.1
				c0,0.9-0.1,1.5-0.3,1.8c-0.2,0.3-0.6,0.4-1.1,0.4h-21.5c0,2,0.3,3.8,0.8,5.3c0.5,1.5,1.2,2.8,2.1,3.8c0.9,1,2,1.8,3.2,2.3
				c1.2,0.5,2.6,0.8,4.2,0.8c1.4,0,2.7-0.2,3.7-0.5c1-0.3,1.9-0.7,2.7-1.1c0.7-0.4,1.4-0.7,1.9-1.1c0.5-0.3,0.9-0.5,1.3-0.5
				c0.5,0,0.8,0.2,1.1,0.5l1.6,2.1c-0.7,0.9-1.5,1.6-2.5,2.2c-1,0.6-2,1.1-3.1,1.6c-1.1,0.4-2.3,0.7-3.5,0.9
				c-1.2,0.2-2.4,0.3-3.5,0.3c-2.2,0-4.3-0.4-6.2-1.1c-1.9-0.8-3.5-1.9-4.9-3.3c-1.4-1.5-2.4-3.3-3.2-5.4c-0.8-2.2-1.2-4.6-1.2-7.4
				c0-2.3,0.3-4.4,1-6.3c0.7-2,1.7-3.7,3-5.1c1.3-1.4,2.9-2.6,4.8-3.4C350.3,670.5,352.4,670.1,354.7,670.1z M354.9,674.3
				c-2.7,0-4.9,0.8-6.5,2.4c-1.6,1.6-2.6,3.8-2.9,6.6H363c0-1.3-0.2-2.5-0.5-3.6c-0.4-1.1-0.9-2-1.6-2.8c-0.7-0.8-1.6-1.4-2.6-1.9
				C357.3,674.5,356.2,674.3,354.9,674.3z"/>
			<path class="st2" d="M380.1,655.9v47.1h-5.7v-47.1H380.1z"/>
			<path class="st2" d="M399.5,670c1.4,0,2.7,0.2,3.9,0.5c1.2,0.3,2.3,0.8,3.3,1.4h8.8v2.1c0,0.7-0.4,1.1-1.3,1.3l-3.7,0.5
				c0.7,1.4,1.1,2.9,1.1,4.6c0,1.6-0.3,3-0.9,4.3c-0.6,1.3-1.4,2.4-2.5,3.3c-1.1,0.9-2.4,1.6-3.8,2.1c-1.5,0.5-3.1,0.7-4.9,0.7
				c-1.5,0-2.9-0.2-4.3-0.5c-0.7,0.4-1.2,0.9-1.5,1.4c-0.4,0.5-0.5,1-0.5,1.5c0,0.8,0.3,1.4,0.9,1.8c0.6,0.4,1.4,0.7,2.5,0.9
				c1,0.2,2.2,0.3,3.5,0.3c1.3,0,2.6,0,4,0c1.4,0,2.7,0.1,4,0.4c1.3,0.2,2.5,0.6,3.5,1.2c1,0.5,1.8,1.3,2.5,2.2s0.9,2.2,0.9,3.7
				c0,1.4-0.3,2.8-1,4.1c-0.7,1.3-1.7,2.5-3,3.5c-1.3,1-2.9,1.8-4.8,2.5c-1.9,0.6-4,0.9-6.4,0.9c-2.4,0-4.4-0.2-6.2-0.7
				c-1.8-0.5-3.3-1.1-4.4-1.9c-1.2-0.8-2-1.7-2.6-2.7c-0.6-1-0.9-2.1-0.9-3.2c0-1.6,0.5-3,1.5-4.1c1-1.1,2.4-2,4.2-2.7
				c-0.9-0.4-1.6-1-2.2-1.7c-0.5-0.7-0.8-1.7-0.8-2.9c0-0.5,0.1-0.9,0.3-1.5c0.2-0.5,0.4-1,0.8-1.5c0.4-0.5,0.8-1,1.3-1.4
				c0.5-0.4,1.1-0.8,1.8-1.2c-1.6-0.9-2.8-2.1-3.8-3.6c-0.9-1.5-1.4-3.2-1.4-5.2c0-1.6,0.3-3,0.9-4.3c0.6-1.3,1.5-2.4,2.5-3.3
				c1.1-0.9,2.4-1.6,3.9-2.1C396,670.3,397.7,670,399.5,670z M409.6,704.6c0-0.8-0.2-1.5-0.7-2c-0.4-0.5-1.1-0.9-1.8-1.2
				c-0.8-0.3-1.7-0.5-2.7-0.6c-1-0.1-2.1-0.2-3.2-0.2c-1.1,0-2.2,0-3.4,0c-1.1,0-2.2-0.1-3.3-0.4c-1.2,0.6-2.2,1.3-3,2.1
				c-0.8,0.8-1.1,1.8-1.1,3c0,0.7,0.2,1.4,0.6,2c0.4,0.6,0.9,1.2,1.7,1.6c0.8,0.5,1.7,0.8,2.9,1.1c1.2,0.3,2.5,0.4,4.1,0.4
				c1.5,0,2.9-0.1,4.1-0.4c1.2-0.3,2.2-0.7,3.1-1.2c0.8-0.5,1.5-1.1,1.9-1.9C409.3,706.2,409.6,705.5,409.6,704.6z M399.5,687.1
				c1.2,0,2.2-0.2,3.1-0.5c0.9-0.3,1.6-0.8,2.2-1.3c0.6-0.6,1-1.3,1.3-2.1c0.3-0.8,0.4-1.7,0.4-2.6c0-2-0.6-3.6-1.8-4.7
				c-1.2-1.2-3-1.8-5.3-1.8c-2.3,0-4,0.6-5.2,1.8c-1.2,1.2-1.8,2.7-1.8,4.7c0,1,0.2,1.8,0.5,2.6c0.3,0.8,0.8,1.5,1.4,2.1
				c0.6,0.6,1.3,1,2.2,1.3C397.3,687,398.3,687.1,399.5,687.1z"/>
			<path class="st2" d="M419.6,702.9v-32.4h3.3c0.6,0,1,0.1,1.3,0.4c0.2,0.2,0.4,0.6,0.5,1.2l0.4,5c1.1-2.3,2.5-4,4.1-5.3
				c1.6-1.3,3.5-1.9,5.7-1.9c0.9,0,1.7,0.1,2.4,0.3s1.4,0.5,2,0.8l-0.7,4.2c-0.2,0.5-0.5,0.8-1,0.8c-0.3,0-0.8-0.1-1.4-0.3
				c-0.6-0.2-1.5-0.3-2.6-0.3c-2,0-3.6,0.6-5,1.7c-1.3,1.2-2.4,2.8-3.3,5v20.6H419.6z"/>
			<path class="st2" d="M466.3,702.9h-2.5c-0.6,0-1-0.1-1.3-0.3c-0.3-0.2-0.6-0.5-0.7-1.1l-0.6-3c-0.9,0.8-1.7,1.5-2.5,2.1
				c-0.8,0.6-1.7,1.1-2.6,1.5c-0.9,0.4-1.8,0.7-2.9,0.9c-1,0.2-2.1,0.3-3.4,0.3c-1.3,0-2.4-0.2-3.5-0.5c-1.1-0.4-2.1-0.9-2.9-1.6
				c-0.8-0.7-1.5-1.6-1.9-2.7c-0.5-1.1-0.7-2.4-0.7-3.8c0-1.3,0.4-2.5,1.1-3.7c0.7-1.2,1.8-2.2,3.4-3.2c1.6-0.9,3.6-1.7,6.1-2.3
				c2.5-0.6,5.6-0.9,9.3-0.9v-2.5c0-2.5-0.5-4.4-1.6-5.7c-1.1-1.3-2.7-1.9-4.8-1.9c-1.4,0-2.5,0.2-3.5,0.5c-0.9,0.4-1.8,0.7-2.5,1.2
				c-0.7,0.4-1.3,0.8-1.8,1.2c-0.5,0.4-1,0.5-1.5,0.5c-0.4,0-0.7-0.1-1-0.3c-0.3-0.2-0.5-0.5-0.7-0.8l-1-1.8c1.8-1.7,3.7-3,5.8-3.9
				c2.1-0.9,4.4-1.3,6.9-1.3c1.8,0,3.4,0.3,4.8,0.9s2.6,1.4,3.5,2.5c1,1.1,1.7,2.4,2.2,3.9c0.5,1.5,0.7,3.2,0.7,5V702.9z
				 M451.6,699.5c1,0,1.9-0.1,2.7-0.3c0.8-0.2,1.6-0.5,2.3-0.9c0.7-0.4,1.4-0.8,2.1-1.4c0.7-0.5,1.3-1.1,2-1.8v-6.7
				c-2.6,0-4.8,0.2-6.7,0.5c-1.8,0.3-3.3,0.8-4.5,1.3c-1.1,0.5-2,1.2-2.5,1.9c-0.5,0.7-0.8,1.5-0.8,2.4c0,0.9,0.1,1.6,0.4,2.2
				c0.3,0.6,0.6,1.1,1.1,1.5c0.5,0.4,1,0.7,1.7,0.9S450.8,699.5,451.6,699.5z"/>
			<path class="st2" d="M496.1,702.9c-0.8,0-1.3-0.4-1.5-1.2l-0.5-3.9c-1.4,1.7-3,3-4.7,4c-1.8,1-3.8,1.5-6.1,1.5
				c-1.9,0-3.5-0.4-5-1.1c-1.5-0.7-2.8-1.8-3.9-3.1c-1.1-1.4-1.9-3.1-2.5-5.2c-0.6-2.1-0.9-4.4-0.9-7.1c0-2.4,0.3-4.6,1-6.7
				c0.6-2.1,1.6-3.8,2.8-5.4c1.2-1.5,2.7-2.7,4.4-3.6c1.7-0.9,3.7-1.3,5.9-1.3c2,0,3.7,0.3,5.1,1c1.4,0.7,2.7,1.6,3.8,2.8v-18h5.7
				v47.1H496.1z M485.1,698.8c1.9,0,3.5-0.4,4.9-1.3c1.4-0.9,2.7-2.1,3.8-3.6v-15.7c-1-1.4-2.2-2.4-3.4-3c-1.2-0.6-2.6-0.8-4.1-0.8
				c-3,0-5.3,1.1-7,3.2c-1.6,2.2-2.4,5.2-2.4,9.2c0,2.1,0.2,3.9,0.5,5.4c0.4,1.5,0.9,2.7,1.6,3.7c0.7,1,1.6,1.7,2.6,2.1
				C482.6,698.6,483.8,698.8,485.1,698.8z"/>
			<path class="st2" d="M520.3,670.1c1.9,0,3.7,0.3,5.4,1c1.6,0.6,3.1,1.6,4.3,2.8c1.2,1.2,2.1,2.7,2.8,4.5c0.7,1.8,1,3.8,1,6.1
				c0,0.9-0.1,1.5-0.3,1.8c-0.2,0.3-0.6,0.4-1.1,0.4h-21.5c0,2,0.3,3.8,0.8,5.3c0.5,1.5,1.2,2.8,2.1,3.8s2,1.8,3.2,2.3
				c1.2,0.5,2.6,0.8,4.2,0.8c1.4,0,2.7-0.2,3.7-0.5c1-0.3,1.9-0.7,2.7-1.1c0.7-0.4,1.4-0.7,1.9-1.1c0.5-0.3,0.9-0.5,1.3-0.5
				c0.5,0,0.8,0.2,1.1,0.5l1.6,2.1c-0.7,0.9-1.5,1.6-2.5,2.2c-1,0.6-2,1.1-3.1,1.6c-1.1,0.4-2.3,0.7-3.5,0.9
				c-1.2,0.2-2.4,0.3-3.5,0.3c-2.2,0-4.3-0.4-6.2-1.1c-1.9-0.8-3.5-1.9-4.9-3.3c-1.4-1.5-2.4-3.3-3.2-5.4c-0.8-2.2-1.2-4.6-1.2-7.4
				c0-2.3,0.3-4.4,1-6.3c0.7-2,1.7-3.7,3-5.1c1.3-1.4,2.9-2.6,4.8-3.4C515.8,670.5,517.9,670.1,520.3,670.1z M520.4,674.3
				c-2.7,0-4.9,0.8-6.5,2.4c-1.6,1.6-2.6,3.8-2.9,6.6h17.6c0-1.3-0.2-2.5-0.5-3.6c-0.4-1.1-0.9-2-1.6-2.8c-0.7-0.8-1.6-1.4-2.6-1.9
				C522.9,674.5,521.7,674.3,520.4,674.3z"/>
			<path class="st2" d="M564.6,656.7c1.9,0,3.7,0.3,5.4,0.9c1.7,0.6,3.1,1.4,4.4,2.5c1.2,1.1,2.2,2.4,2.9,4c0.7,1.6,1.1,3.4,1.1,5.4
				c0,1.7-0.3,3.3-0.8,4.7c-0.5,1.4-1.2,2.8-2.1,4.2c-0.9,1.3-1.9,2.6-3,3.9c-1.1,1.2-2.3,2.5-3.6,3.8l-12,12.3
				c0.9-0.2,1.7-0.4,2.6-0.6s1.7-0.2,2.5-0.2h15.3c0.6,0,1.1,0.2,1.5,0.5c0.4,0.4,0.5,0.8,0.5,1.4v3.5h-30.5V701
				c0-0.4,0.1-0.8,0.2-1.2c0.2-0.4,0.4-0.8,0.8-1.2l14.7-14.7c1.2-1.2,2.3-2.4,3.3-3.6c1-1.1,1.9-2.3,2.6-3.4
				c0.7-1.1,1.3-2.3,1.6-3.5c0.4-1.2,0.6-2.4,0.6-3.8c0-1.3-0.2-2.5-0.6-3.5c-0.4-1-1-1.8-1.8-2.5c-0.7-0.7-1.6-1.2-2.6-1.5
				c-1-0.3-2.1-0.5-3.2-0.5c-1.1,0-2.2,0.2-3.2,0.5c-1,0.3-1.8,0.8-2.6,1.4c-0.8,0.6-1.4,1.3-1.9,2.2c-0.5,0.8-0.9,1.7-1.1,2.7
				c-0.2,0.6-0.4,1.1-0.8,1.3c-0.3,0.3-0.8,0.4-1.3,0.4c-0.1,0-0.2,0-0.3,0c-0.1,0-0.3,0-0.4,0l-3-0.5c0.3-2.1,0.9-3.9,1.7-5.5
				c0.9-1.6,1.9-3,3.2-4c1.3-1.1,2.8-1.9,4.5-2.5S562.7,656.7,564.6,656.7z"/>
			<path class="st2" d="M616,680.1c0,4-0.4,7.5-1.3,10.4c-0.9,2.9-2,5.3-3.5,7.3c-1.5,1.9-3.3,3.3-5.3,4.3c-2,0.9-4.2,1.4-6.5,1.4
				c-2.3,0-4.5-0.5-6.5-1.4c-2-0.9-3.8-2.4-5.3-4.3c-1.5-1.9-2.7-4.3-3.5-7.3s-1.3-6.4-1.3-10.4c0-4,0.4-7.5,1.3-10.4s2-5.4,3.5-7.3
				c1.5-1.9,3.2-3.4,5.3-4.3c2-0.9,4.2-1.4,6.5-1.4c2.3,0,4.5,0.5,6.5,1.4c2,0.9,3.8,2.4,5.3,4.3c1.5,1.9,2.7,4.4,3.5,7.3
				C615.6,672.6,616,676.1,616,680.1z M610.1,680.1c0-3.5-0.3-6.4-0.9-8.8s-1.4-4.3-2.4-5.7c-1-1.4-2.1-2.5-3.4-3.1
				c-1.3-0.6-2.7-0.9-4.1-0.9c-1.4,0-2.8,0.3-4.1,0.9c-1.3,0.6-2.4,1.7-3.4,3.1c-1,1.4-1.8,3.4-2.3,5.7c-0.6,2.4-0.9,5.3-0.9,8.8
				c0,3.5,0.3,6.4,0.9,8.8c0.6,2.4,1.4,4.3,2.3,5.7c1,1.4,2.1,2.5,3.4,3.1c1.3,0.6,2.7,0.9,4.1,0.9c1.4,0,2.8-0.3,4.1-0.9
				c1.3-0.6,2.4-1.7,3.4-3.1c1-1.4,1.8-3.4,2.4-5.7C609.8,686.5,610.1,683.6,610.1,680.1z"/>
			<path class="st2" d="M625.5,698.6h9.8v-31.2c0-0.9,0-1.9,0.1-2.8l-8.2,7c-0.2,0.2-0.4,0.3-0.6,0.4c-0.2,0.1-0.4,0.1-0.6,0.1
				c-0.3,0-0.6-0.1-0.9-0.2c-0.3-0.1-0.4-0.3-0.6-0.5l-1.8-2.5l13.6-11.8h4.6v41.5h9v4.3h-24.5V698.6z"/>
			<path class="st2" d="M670.3,703.5c-2.3,0-4.4-0.3-6.3-0.9c-1.9-0.6-3.5-1.5-4.9-2.6c-1.4-1.1-2.4-2.5-3.2-4.1
				c-0.7-1.6-1.1-3.4-1.1-5.4c0-2.9,0.8-5.4,2.3-7.3c1.5-1.9,3.7-3.3,6.6-4.1c-2.4-0.9-4.2-2.2-5.4-4c-1.2-1.8-1.8-3.9-1.8-6.4
				c0-1.7,0.3-3.3,1-4.7c0.7-1.5,1.6-2.7,2.8-3.8c1.2-1.1,2.7-1.9,4.4-2.6c1.7-0.6,3.6-0.9,5.7-0.9c2.1,0,3.9,0.3,5.7,0.9
				c1.7,0.6,3.2,1.5,4.4,2.6c1.2,1.1,2.2,2.4,2.8,3.8c0.7,1.5,1,3,1,4.7c0,2.5-0.6,4.6-1.9,6.4c-1.2,1.8-3,3.1-5.4,4
				c2.9,0.8,5,2.2,6.6,4.1c1.5,1.9,2.3,4.3,2.3,7.3c0,2-0.4,3.8-1.1,5.4c-0.8,1.6-1.8,3-3.2,4.1c-1.4,1.1-3,2-4.9,2.6
				C674.7,703.1,672.6,703.5,670.3,703.5z M670.3,698.9c1.5,0,2.8-0.2,4-0.6c1.2-0.4,2.2-1,3-1.8c0.8-0.8,1.4-1.7,1.9-2.7
				c0.4-1.1,0.7-2.2,0.7-3.5c0-1.6-0.3-2.9-0.8-4c-0.5-1.1-1.2-2-2.1-2.7c-0.9-0.7-1.9-1.2-3.1-1.6c-1.1-0.3-2.4-0.5-3.6-0.5
				c-1.3,0-2.5,0.2-3.6,0.5c-1.1,0.3-2.2,0.8-3.1,1.6c-0.9,0.7-1.6,1.6-2.1,2.7c-0.5,1.1-0.8,2.5-0.8,4c0,1.3,0.2,2.4,0.7,3.5
				c0.4,1.1,1.1,2,1.9,2.7c0.8,0.8,1.8,1.3,3,1.8C667.5,698.7,668.8,698.9,670.3,698.9z M670.3,676.9c1.5,0,2.8-0.2,3.8-0.7
				c1.1-0.5,1.9-1.1,2.6-1.8c0.7-0.8,1.1-1.6,1.4-2.6c0.3-1,0.4-2,0.4-3c0-1.1-0.2-2.1-0.5-3c-0.4-0.9-0.9-1.8-1.6-2.5
				c-0.7-0.7-1.6-1.3-2.6-1.7s-2.2-0.6-3.6-0.6s-2.6,0.2-3.6,0.6c-1,0.4-1.9,1-2.6,1.7c-0.7,0.7-1.2,1.5-1.6,2.5
				c-0.4,0.9-0.5,1.9-0.5,3c0,1,0.1,2.1,0.4,3c0.3,1,0.8,1.8,1.4,2.6c0.7,0.8,1.5,1.4,2.6,1.8C667.5,676.7,668.8,676.9,670.3,676.9z
				"/>
		</g>
	</g>
</g>
</svg>
