<?xml version="1.0" encoding="utf-8"?>
<!-- Generator: Adobe Illustrator 23.0.1, SVG Export Plug-In . SVG Version: 6.00 Build 0)  -->
<svg version="1.1" id="Layer_1" xmlns="http://www.w3.org/2000/svg" xmlns:xlink="http://www.w3.org/1999/xlink" x="0px" y="0px"
	 viewBox="0 0 700 600" style="enable-background:new 0 0 700 600;" xml:space="preserve">
<style type="text/css">
	.st0{fill:#FFD64F;}
	.st1{fill:#28AAE1;}
	.st2{fill:#343C3E;}
</style>
<g>
	<g>
		<g>
			<path class="st0" d="M599.7,239.3c-10,0-20-3.8-27.6-11.4l-123-123c-5.1-5.1-13.3-5.1-18.4,0c-2.5,2.5-3.8,5.7-3.8,9.2
				c0,3.5,1.4,6.7,3.8,9.2l76.4,76.4c5.1,5.1,5.1,13.3,0,18.4c-5.1,5.1-13.3,5.1-18.4,0l-76.4-76.4c-15.2-15.2-15.2-40,0-55.2
				c15.2-15.2,40-15.2,55.2,0l123,123c5.1,5.1,13.3,5.1,18.4,0c2.5-2.5,3.8-5.7,3.8-9.2c0-3.5-1.4-6.7-3.8-9.2l-28.7-28.7
				c-5.1-5.1-5.1-13.3,0-18.4c5.1-5.1,13.3-5.1,18.4,0l28.7,28.7c7.4,7.4,11.4,17.2,11.4,27.6c0,10.4-4.1,20.2-11.4,27.6
				C619.7,235.5,609.7,239.3,599.7,239.3z"/>
			<path class="st1" d="M586.8,373.6c-10,0-20-3.8-27.6-11.4L518.1,321c-5.1-5.1-5.1-13.3,0-18.4c5.1-5.1,13.3-5.1,18.4,0l41.1,41.1
				c5.1,5.1,13.3,5.1,18.4,0c2.5-2.5,3.8-5.7,3.8-9.2c0-3.5-1.4-6.7-3.8-9.2l-69.2-69.2c-5.1-5.1-5.1-13.3,0-18.4
				c5.1-5.1,13.3-5.1,18.4,0l69.2,69.2c15.2,15.2,15.2,40,0,55.2C606.8,369.8,596.8,373.6,586.8,373.6z"/>
			<path class="st1" d="M415.7,213.2c-3.3,0-6.7-1.3-9.2-3.8l-83-83c-5.1-5.1-13.3-5.1-18.4,0c-5.1,5.1-5.1,13.3,0,18.4l38.6,38.6
				c5.1,5.1,5.1,13.3,0,18.4c-5.1,5.1-13.3,5.1-18.4,0l-38.6-38.6c-15.2-15.2-15.2-40,0-55.2c15.2-15.2,40-15.2,55.2,0l83,83
				c5.1,5.1,5.1,13.3,0,18.4C422.4,212,419,213.2,415.7,213.2z"/>
			<path class="st0" d="M530.6,464.5c-10,0-20-3.8-27.6-11.4l-37.5-37.5c-5.1-5.1-5.1-13.3,0-18.4c5.1-5.1,13.3-5.1,18.4,0
				l37.5,37.5c2.5,2.5,5.7,3.8,9.2,3.8c3.5,0,6.7-1.4,9.2-3.8c5.1-5.1,5.1-13.3,0-18.4l-39-39c-5.1-5.1-5.1-13.3,0-18.4
				c5.1-5.1,13.3-5.1,18.4,0l39,39c15.2,15.2,15.2,40,0,55.2C550.6,460.7,540.6,464.5,530.6,464.5z"/>
			<path class="st0" d="M195,213.2c-3.3,0-6.7-1.3-9.2-3.8l-16-16c-15.2-15.2-15.2-40,0-55.2c15.2-15.2,40-15.2,55.2,0l44.1,44.1
				c5.1,5.1,5.1,13.3,0,18.4c-5.1,5.1-13.3,5.1-18.4,0l-44.1-44.1c-5.1-5.1-13.3-5.1-18.4,0c-5.1,5.1-5.1,13.3,0,18.4l16,16
				c5.1,5.1,5.1,13.3,0,18.4C201.6,212,198.3,213.2,195,213.2z"/>
			<path class="st1" d="M431,512.1c-10.4,0-20.2-4.1-27.6-11.4L356.8,454c-5.1-5.1-5.1-13.3,0-18.4c5.1-5.1,13.3-5.1,18.4,0
				l46.6,46.6c2.5,2.5,5.7,3.8,9.2,3.8c3.5,0,6.7-1.4,9.2-3.8c5.1-5.1,5.1-13.3,0-18.4l-9.8-9.8c-5.1-5.1-5.1-13.3,0-18.4
				c5.1-5.1,13.3-5.1,18.4,0l9.8,9.8c15.2,15.2,15.2,40,0,55.2C451.2,508,441.4,512.1,431,512.1z"/>
			<path class="st1" d="M192,357.4c-3.3,0-6.7-1.3-9.2-3.8L78.9,249.7c-15.2-15.2-15.2-40,0-55.2c15.2-15.2,40-15.2,55.2,0
				l67.1,67.1c5.1,5.1,5.1,13.3,0,18.4c-5.1,5.1-13.3,5.1-18.4,0l-67.1-67.1c-5.1-5.1-13.3-5.1-18.4,0c-5.1,5.1-5.1,13.3,0,18.4
				l103.9,103.9c5.1,5.1,5.1,13.3,0,18.4C198.7,356.1,195.3,357.4,192,357.4z"/>
			<path class="st0" d="M288.1,516.2c-10,0-20-3.8-27.6-11.4L158.8,403.2c-5.1-5.1-5.1-13.3,0-18.4c5.1-5.1,13.3-5.1,18.4,0
				l101.7,101.7c5.1,5.1,13.3,5.1,18.4,0c5.1-5.1,5.1-13.3,0-18.4l-14.1-14.1c-5.1-5.1-5.1-13.3,0-18.4c5.1-5.1,13.3-5.1,18.4,0
				l14.1,14.1c15.2,15.2,15.2,40,0,55.2C308,512.4,298.1,516.2,288.1,516.2z"/>
			<path class="st1" d="M147.2,459.8c-3.3,0-6.7-1.3-9.2-3.8l-63.3-63.3c-15.2-15.2-15.2-40,0-55.2c15.2-15.2,40-15.2,55.2,0
				l10.6,10.6c5.1,5.1,5.1,13.3,0,18.4c-5.1,5.1-13.3,5.1-18.4,0l-10.6-10.6c-5.1-5.1-13.3-5.1-18.4,0c-5.1,5.1-5.1,13.3,0,18.4
				l63.3,63.3c5.1,5.1,5.1,13.3,0,18.4C153.9,458.5,150.5,459.8,147.2,459.8z"/>
		</g>
		<g>
			<path class="st1" d="M225.4,528.8l15.6,15.6c4.5,4.5,14.6,15.7,9.4,30.7c0,0,9.6-15.9-7.3-32.8c16.9,16.9,32.8,7.3,32.8,7.3
				c-15,5.2-26.1-4.9-30.7-9.4l-15.6-15.6l-4.9-0.7L225.4,528.8z"/>
			<g>
				<path class="st0" d="M173.2,472.8c-5.3,5.5-5.2,14.1,0.2,19.5c2.8,2.3,4.9,5.4,6,8.9l1.3,4.2c2.9,9.2,9.6,16.7,18.5,20.5
					c0,0,9.6,4.5,15.5,7.4c7.5,3.6,13,3.2,17.8-1.6s5.2-10.3,1.6-17.8c-2.9-6-7.4-15.5-7.4-15.5c-3.8-8.9-11.3-15.6-20.5-18.5
					l-4.2-1.3c-3.5-1.1-6.6-3.2-8.9-6c-5.4-5.4-14.1-5.4-19.5-0.2c-0.1,0.1-0.1,0.1-0.2,0.2C173.4,472.7,173.3,472.7,173.2,472.8z"
					/>
			</g>
			<g>
				<circle class="st1" cx="206.4" cy="526.6" r="7"/>
				<circle class="st1" cx="227.4" cy="505.6" r="7"/>
				<path class="st0" d="M192.5,526.6h20.9v-11.9H200c-4.1,0-7.5,3.3-7.5,7.5V526.6z"/>
				<path class="st0" d="M227.4,491.7v20.9h-11.9v-13.4c0-4.1,3.3-7.5,7.5-7.5H227.4z"/>
			</g>
		</g>
		<g>
			<path class="st0" d="M511.3,71.2l-15.6-15.6c-4.5-4.5-14.6-15.7-9.4-30.7c0,0-9.6,15.9,7.3,32.8c-16.9-16.9-32.8-7.3-32.8-7.3
				c15-5.2,26.1,4.9,30.7,9.4l15.6,15.6l4.9,0.7L511.3,71.2z"/>
			<g>
				<path class="st1" d="M563.4,127.2c5.3-5.5,5.2-14.1-0.2-19.5c-2.8-2.3-4.9-5.4-6-8.9l-1.3-4.2c-2.9-9.2-9.6-16.7-18.5-20.5
					c0,0-9.6-4.5-15.5-7.4c-7.5-3.6-13-3.2-17.8,1.6s-5.2,10.3-1.6,17.8c2.9,6,7.4,15.5,7.4,15.5c3.8,8.9,11.3,15.6,20.5,18.5
					l4.2,1.3c3.5,1.1,6.6,3.2,8.9,6c5.4,5.4,14.1,5.4,19.5,0.2c0.1-0.1,0.1-0.1,0.2-0.2C563.3,127.3,563.4,127.3,563.4,127.2z"/>
			</g>
			<g>
				<circle class="st0" cx="530.2" cy="73.4" r="7"/>
				<circle class="st0" cx="509.3" cy="94.4" r="7"/>
				<path class="st1" d="M544.1,73.4h-20.9v11.9h13.4c4.1,0,7.5-3.3,7.5-7.5V73.4z"/>
				<path class="st1" d="M509.3,108.3V87.4h11.9v13.4c0,4.1-3.3,7.5-7.5,7.5H509.3z"/>
			</g>
		</g>
	</g>
	<g>
		<g>
			<path class="st2" d="M244,271.6V294h-15.5v-67H252c4.7,0,8.8,0.6,12.2,1.7c3.4,1.1,6.2,2.7,8.4,4.6c2.2,2,3.8,4.3,4.9,6.9
				c1,2.7,1.6,5.5,1.6,8.6c0,3.3-0.5,6.4-1.6,9.2c-1.1,2.8-2.7,5.2-4.9,7.2c-2.2,2-5,3.5-8.4,4.7c-3.4,1.1-7.4,1.7-12,1.7H244z
				 M244,259.9h8.1c4,0,7-1,8.7-2.9c1.8-1.9,2.7-4.6,2.7-8.1c0-1.5-0.2-2.9-0.7-4.2c-0.5-1.3-1.2-2.3-2.1-3.2
				c-0.9-0.9-2.1-1.6-3.5-2.1c-1.4-0.5-3.1-0.7-5.1-0.7H244V259.9z"/>
			<path class="st2" d="M309.9,306.4c-0.4,0.9-1,1.6-1.6,2.1c-0.6,0.4-1.6,0.7-2.9,0.7h-10.7l9.2-19.3l-19-43.5h12.6
				c1.1,0,2,0.2,2.6,0.7c0.6,0.5,1,1.1,1.3,1.7l7.8,20.5c0.7,1.9,1.3,3.8,1.8,5.7c0.3-1,0.6-1.9,1-2.9c0.4-0.9,0.7-1.9,1.1-2.9
				l7.1-20.5c0.2-0.7,0.7-1.3,1.4-1.8c0.7-0.5,1.5-0.7,2.3-0.7h11.5L309.9,306.4z"/>
			<path class="st2" d="M387.1,276.7c0.4,0,0.7,0.1,1.1,0.2c0.4,0.1,0.7,0.4,1.1,0.7l6.2,6.5c-2.7,3.5-6.1,6.2-10.1,8
				c-4.1,1.8-8.9,2.7-14.4,2.7c-5.1,0-9.6-0.9-13.7-2.6c-4-1.7-7.4-4.1-10.3-7.2c-2.8-3-5-6.7-6.5-10.8c-1.5-4.2-2.3-8.7-2.3-13.6
				c0-5,0.9-9.6,2.6-13.8c1.7-4.2,4.1-7.8,7.2-10.8c3.1-3,6.8-5.4,11.1-7.1c4.3-1.7,9-2.5,14.2-2.5c2.5,0,4.9,0.2,7.1,0.7
				c2.2,0.4,4.3,1.1,6.2,1.8c1.9,0.8,3.7,1.7,5.3,2.8c1.6,1.1,3.1,2.3,4.3,3.6l-5.2,7c-0.3,0.4-0.7,0.8-1.2,1.2
				c-0.5,0.4-1.1,0.5-1.9,0.5c-0.6,0-1.1-0.1-1.6-0.4c-0.5-0.2-1-0.5-1.6-0.9c-0.6-0.4-1.2-0.7-1.8-1.1c-0.7-0.4-1.4-0.8-2.3-1.1
				c-0.9-0.4-2-0.7-3.2-0.9c-1.2-0.2-2.6-0.4-4.3-0.4c-2.8,0-5.4,0.5-7.7,1.5c-2.3,1-4.3,2.4-6,4.3c-1.7,1.9-3,4.1-3.9,6.7
				c-0.9,2.6-1.4,5.6-1.4,8.9c0,3.4,0.5,6.5,1.4,9.1c0.9,2.7,2.2,4.9,3.8,6.7c1.6,1.8,3.5,3.2,5.6,4.2c2.1,0.9,4.4,1.4,6.9,1.4
				c1.4,0,2.7-0.1,3.9-0.2c1.2-0.1,2.2-0.4,3.2-0.7c1-0.3,1.9-0.8,2.9-1.3c0.9-0.5,1.8-1.2,2.7-2c0.4-0.3,0.8-0.6,1.2-0.8
				C386.1,276.8,386.6,276.7,387.1,276.7z"/>
			<path class="st2" d="M422,245.6c3.6,0,6.9,0.6,9.9,1.7c3,1.1,5.5,2.8,7.7,4.9c2.1,2.1,3.8,4.7,5,7.7c1.2,3,1.8,6.4,1.8,10.2
				c0,3.8-0.6,7.2-1.8,10.3c-1.2,3-2.8,5.6-5,7.8c-2.1,2.1-4.7,3.8-7.7,4.9c-3,1.1-6.3,1.7-9.9,1.7c-3.6,0-7-0.6-10-1.7
				c-3-1.1-5.6-2.8-7.7-4.9c-2.2-2.1-3.8-4.7-5-7.8c-1.2-3-1.8-6.5-1.8-10.3c0-3.8,0.6-7.2,1.8-10.2c1.2-3,2.9-5.6,5-7.7
				c2.2-2.1,4.7-3.7,7.7-4.9C415.1,246.2,418.4,245.6,422,245.6z M422,284.2c3.3,0,5.7-1.2,7.2-3.5c1.5-2.3,2.3-5.8,2.3-10.5
				c0-4.7-0.8-8.2-2.3-10.5c-1.5-2.3-4-3.4-7.2-3.4c-3.4,0-5.8,1.1-7.4,3.4c-1.6,2.3-2.3,5.8-2.3,10.5c0,4.7,0.8,8.2,2.3,10.5
				C416.2,283,418.7,284.2,422,284.2z"/>
			<path class="st2" d="M452.5,294v-47.7h8.8c0.9,0,1.6,0.2,2.2,0.6c0.6,0.4,1,1,1.3,1.8l0.8,2.8c0.9-0.9,1.9-1.7,2.9-2.4
				c1-0.7,2-1.4,3.1-1.9c1.1-0.5,2.3-0.9,3.6-1.2c1.3-0.3,2.7-0.4,4.3-0.4c2.6,0,4.9,0.5,6.9,1.4c2,0.9,3.7,2.2,5.1,3.8
				c1.4,1.6,2.4,3.5,3.1,5.7c0.7,2.2,1.1,4.6,1.1,7.2V294h-14.2v-30.3c0-2.3-0.5-4.1-1.6-5.4c-1.1-1.3-2.7-2-4.7-2
				c-1.6,0-3,0.3-4.4,1c-1.4,0.7-2.7,1.6-4,2.7v34H452.5z"/>
		</g>
		<g>
			<path class="st2" d="M250.4,303.8c4.2,0,7.8,0.4,10.8,1.2c3,0.8,5.5,2,7.4,3.5c1.9,1.5,3.3,3.3,4.3,5.5c0.9,2.2,1.4,4.6,1.4,7.3
				c0,1.6-0.2,3.1-0.7,4.5c-0.5,1.5-1.2,2.8-2.2,4.1c-1,1.3-2.2,2.4-3.7,3.4c-1.5,1-3.3,1.9-5.3,2.5c9.4,2,14.1,7,14.1,14.9
				c0,2.8-0.5,5.4-1.6,7.7c-1.1,2.3-2.6,4.4-4.6,6.1c-2,1.7-4.5,3-7.4,4c-2.9,1-6.3,1.4-10.1,1.4h-24.3v-66.2H250.4z M239.2,312.2
				v20.7h10.8c4.6,0,8-0.9,10.3-2.7c2.3-1.8,3.4-4.3,3.4-7.7c0-3.6-1.1-6.3-3.2-7.9c-2.1-1.6-5.5-2.4-10-2.4H239.2z M252.5,361.5
				c2.4,0,4.5-0.3,6.1-0.9c1.7-0.6,3-1.3,4.1-2.3c1.1-1,1.8-2.1,2.3-3.5c0.5-1.3,0.7-2.8,0.7-4.3c0-3.1-1.1-5.6-3.2-7.4
				c-2.1-1.8-5.5-2.7-10.1-2.7h-13.3v21H252.5z"/>
			<path class="st2" d="M283.9,329.7c5.3-4.9,11.6-7.4,18.9-7.4c2.7,0,5.1,0.4,7.2,1.3s3.9,2.1,5.3,3.7c1.4,1.6,2.5,3.5,3.3,5.7
				c0.8,2.2,1.1,4.6,1.1,7.3V370h-4.4c-1,0-1.7-0.1-2.2-0.4c-0.5-0.3-0.9-0.9-1.2-1.8l-1-3.8c-1.2,1.1-2.4,2-3.5,2.9
				c-1.2,0.8-2.4,1.6-3.6,2.1c-1.2,0.6-2.6,1-4,1.3s-3,0.4-4.7,0.4c-1.9,0-3.7-0.3-5.3-0.8c-1.6-0.5-3.1-1.3-4.3-2.4
				c-1.2-1.1-2.1-2.4-2.8-3.9c-0.7-1.6-1-3.4-1-5.5c0-1.8,0.5-3.6,1.4-5.3c1-1.7,2.6-3.3,4.8-4.6c2.2-1.4,5.1-2.5,8.8-3.4
				c3.6-0.9,8.1-1.4,13.4-1.5v-3.1c0-3.4-0.7-5.9-2.2-7.5c-1.4-1.7-3.6-2.5-6.3-2.5c-1.9,0-3.5,0.2-4.8,0.7c-1.3,0.5-2.4,1-3.4,1.5
				c-1,0.6-1.8,1.1-2.5,1.5c-0.7,0.5-1.5,0.7-2.3,0.7c-0.7,0-1.2-0.2-1.7-0.5c-0.5-0.4-0.9-0.8-1.2-1.3L283.9,329.7z M310.1,349.5
				c-3.5,0.1-6.5,0.4-8.9,0.9c-2.4,0.4-4.4,1-5.9,1.7c-1.5,0.7-2.6,1.5-3.2,2.5c-0.7,1-1,2-1,3.1c0,1.1,0.2,2,0.5,2.8
				c0.4,0.8,0.8,1.4,1.5,1.9c0.6,0.5,1.4,0.9,2.2,1.1c0.8,0.2,1.8,0.3,2.8,0.3c2.6,0,4.8-0.5,6.6-1.4c1.9-1,3.7-2.4,5.4-4.2V349.5z"
				/>
			<path class="st2" d="M335.5,302v68h-9.9v-68H335.5z"/>
			<path class="st2" d="M351,302v39.4h2.1c0.7,0,1.2-0.1,1.7-0.3c0.4-0.2,0.9-0.6,1.3-1.1l13.1-15c0.5-0.6,1-1.1,1.5-1.4
				c0.6-0.3,1.3-0.5,2.1-0.5h9L366.1,341c-0.9,1.2-1.9,2.1-3,2.9c0.6,0.4,1.1,0.9,1.6,1.4c0.5,0.5,0.9,1.1,1.3,1.8l16.9,22.9H374
				c-0.8,0-1.5-0.1-2-0.4c-0.6-0.3-1.1-0.7-1.5-1.4l-13.6-18.4c-0.5-0.7-0.9-1.2-1.4-1.4c-0.5-0.2-1.1-0.3-2.1-0.3H351V370h-9.9v-68
				H351z"/>
			<path class="st2" d="M385.5,329.7c5.3-4.9,11.6-7.4,18.9-7.4c2.7,0,5.1,0.4,7.2,1.3s3.9,2.1,5.3,3.7c1.4,1.6,2.5,3.5,3.3,5.7
				c0.8,2.2,1.1,4.6,1.1,7.3V370h-4.4c-1,0-1.7-0.1-2.2-0.4c-0.5-0.3-0.9-0.9-1.2-1.8l-1-3.8c-1.2,1.1-2.4,2-3.5,2.9
				c-1.2,0.8-2.4,1.6-3.6,2.1s-2.6,1-4,1.3s-3,0.4-4.7,0.4c-1.9,0-3.7-0.3-5.3-0.8c-1.6-0.5-3.1-1.3-4.3-2.4
				c-1.2-1.1-2.1-2.4-2.8-3.9c-0.7-1.6-1-3.4-1-5.5c0-1.8,0.5-3.6,1.4-5.3c1-1.7,2.6-3.3,4.8-4.6c2.2-1.4,5.1-2.5,8.8-3.4
				c3.6-0.9,8.1-1.4,13.4-1.5v-3.1c0-3.4-0.7-5.9-2.2-7.5c-1.4-1.7-3.6-2.5-6.3-2.5c-1.9,0-3.5,0.2-4.8,0.7c-1.3,0.5-2.4,1-3.4,1.5
				c-1,0.6-1.8,1.1-2.5,1.5c-0.7,0.5-1.5,0.7-2.3,0.7c-0.7,0-1.2-0.2-1.7-0.5c-0.5-0.4-0.9-0.8-1.2-1.3L385.5,329.7z M411.7,349.5
				c-3.5,0.1-6.5,0.4-8.9,0.9c-2.4,0.4-4.4,1-5.9,1.7c-1.5,0.7-2.6,1.5-3.2,2.5c-0.7,1-1,2-1,3.1c0,1.1,0.2,2,0.5,2.8
				c0.4,0.8,0.8,1.4,1.5,1.9c0.6,0.5,1.4,0.9,2.2,1.1c0.8,0.2,1.8,0.3,2.8,0.3c2.6,0,4.8-0.5,6.6-1.4c1.9-1,3.7-2.4,5.4-4.2V349.5z"
				/>
			<path class="st2" d="M436.3,329.3c1-1,2.1-2,3.1-2.8c1.1-0.8,2.2-1.6,3.5-2.2c1.2-0.6,2.5-1.1,3.9-1.4s2.9-0.5,4.5-0.5
				c2.6,0,4.8,0.4,6.8,1.3c1.9,0.9,3.6,2.1,4.9,3.6c1.3,1.6,2.3,3.4,3,5.6c0.7,2.2,1,4.6,1,7.2V370h-9.8v-29.8
				c0-3.2-0.7-5.6-2.2-7.4c-1.5-1.7-3.7-2.6-6.6-2.6c-2.2,0-4.3,0.5-6.1,1.5c-1.9,1-3.7,2.4-5.3,4.1V370h-9.9v-46.9h6
				c1.3,0,2.2,0.6,2.6,1.9L436.3,329.3z"/>
		</g>
	</g>
	<g>
		<path class="st2" d="M228.4,407.9v-23.5h7.5c1.4,0,2.7,0.1,3.7,0.4c1,0.3,1.9,0.7,2.6,1.2c0.7,0.5,1.2,1.2,1.5,1.9
			c0.3,0.8,0.5,1.6,0.5,2.6c0,0.6-0.1,1.1-0.3,1.7c-0.2,0.5-0.5,1-0.8,1.5c-0.4,0.5-0.8,0.9-1.4,1.2c-0.6,0.4-1.2,0.7-1.9,0.9
			c1.7,0.3,3,1,3.9,1.9c0.9,0.9,1.3,2.1,1.3,3.6c0,1-0.2,1.9-0.6,2.7c-0.4,0.8-0.9,1.5-1.6,2.1c-0.7,0.6-1.6,1-2.6,1.4
			c-1,0.3-2.2,0.5-3.5,0.5H228.4z M231.6,394.9h4.2c0.9,0,1.7-0.1,2.3-0.3c0.7-0.2,1.2-0.5,1.6-0.8c0.4-0.4,0.8-0.8,1-1.3
			c0.2-0.5,0.3-1,0.3-1.6c0-1.4-0.4-2.4-1.2-3c-0.8-0.6-2.1-1-3.9-1h-4.3V394.9z M231.6,397.1v8.2h5.1c0.9,0,1.7-0.1,2.3-0.3
			s1.2-0.5,1.6-0.9c0.4-0.4,0.7-0.8,0.9-1.3c0.2-0.5,0.3-1.1,0.3-1.7c0-1.2-0.4-2.2-1.3-2.9c-0.9-0.7-2.2-1.1-3.9-1.1H231.6z"/>
		<path class="st2" d="M255.8,391c1,0,1.9,0.2,2.8,0.5c0.8,0.3,1.6,0.8,2.2,1.4c0.6,0.6,1.1,1.4,1.4,2.3c0.3,0.9,0.5,2,0.5,3.2
			c0,0.5,0,0.8-0.1,0.9c-0.1,0.2-0.3,0.2-0.6,0.2h-11.1c0,1.1,0.2,2,0.4,2.7s0.6,1.4,1.1,1.9c0.5,0.5,1,0.9,1.6,1.2
			c0.6,0.3,1.3,0.4,2.1,0.4c0.7,0,1.4-0.1,1.9-0.3c0.5-0.2,1-0.4,1.4-0.6c0.4-0.2,0.7-0.4,1-0.5c0.3-0.2,0.5-0.3,0.7-0.3
			c0.2,0,0.4,0.1,0.6,0.3l0.8,1.1c-0.4,0.4-0.8,0.8-1.3,1.1c-0.5,0.3-1,0.6-1.6,0.8c-0.6,0.2-1.2,0.4-1.8,0.5
			c-0.6,0.1-1.2,0.2-1.8,0.2c-1.2,0-2.2-0.2-3.2-0.6c-1-0.4-1.8-1-2.5-1.7c-0.7-0.8-1.3-1.7-1.7-2.8c-0.4-1.1-0.6-2.4-0.6-3.8
			c0-1.2,0.2-2.2,0.5-3.3c0.4-1,0.9-1.9,1.5-2.6c0.7-0.7,1.5-1.3,2.4-1.7S254.6,391,255.8,391z M255.8,393.1c-1.4,0-2.5,0.4-3.3,1.2
			c-0.8,0.8-1.3,1.9-1.5,3.4h9.1c0-0.7-0.1-1.3-0.3-1.9c-0.2-0.6-0.5-1.1-0.8-1.5c-0.4-0.4-0.8-0.7-1.3-1S256.5,393.1,255.8,393.1z"
			/>
		<path class="st2" d="M269.7,383.7v24.2h-2.9v-24.2H269.7z"/>
		<path class="st2" d="M280.4,390.9c0.7,0,1.4,0.1,2,0.2c0.6,0.2,1.2,0.4,1.7,0.7h4.5v1.1c0,0.4-0.2,0.6-0.7,0.7l-1.9,0.3
			c0.4,0.7,0.6,1.5,0.6,2.4c0,0.8-0.2,1.5-0.5,2.2c-0.3,0.7-0.7,1.2-1.3,1.7c-0.6,0.5-1.2,0.8-2,1.1c-0.8,0.3-1.6,0.4-2.5,0.4
			c-0.8,0-1.5-0.1-2.2-0.3c-0.4,0.2-0.6,0.5-0.8,0.7c-0.2,0.3-0.3,0.5-0.3,0.8c0,0.4,0.2,0.7,0.5,0.9c0.3,0.2,0.7,0.4,1.3,0.5
			c0.5,0.1,1.1,0.1,1.8,0.1s1.3,0,2,0c0.7,0,1.4,0.1,2,0.2c0.7,0.1,1.3,0.3,1.8,0.6c0.5,0.3,0.9,0.7,1.3,1.1
			c0.3,0.5,0.5,1.1,0.5,1.9c0,0.7-0.2,1.4-0.5,2.1c-0.4,0.7-0.9,1.3-1.5,1.8c-0.7,0.5-1.5,0.9-2.4,1.3c-1,0.3-2.1,0.5-3.3,0.5
			c-1.2,0-2.3-0.1-3.2-0.4c-0.9-0.2-1.7-0.6-2.3-1c-0.6-0.4-1.1-0.9-1.4-1.4c-0.3-0.5-0.5-1.1-0.5-1.7c0-0.8,0.3-1.5,0.8-2.1
			c0.5-0.6,1.2-1,2.1-1.4c-0.5-0.2-0.8-0.5-1.1-0.9c-0.3-0.4-0.4-0.9-0.4-1.5c0-0.2,0-0.5,0.1-0.7c0.1-0.3,0.2-0.5,0.4-0.8
			c0.2-0.3,0.4-0.5,0.7-0.7c0.3-0.2,0.6-0.4,0.9-0.6c-0.8-0.5-1.5-1.1-1.9-1.8c-0.5-0.8-0.7-1.7-0.7-2.7c0-0.8,0.2-1.5,0.5-2.2
			c0.3-0.7,0.7-1.2,1.3-1.7c0.6-0.5,1.2-0.8,2-1.1C278.7,391.1,279.5,390.9,280.4,390.9z M285.6,408.7c0-0.4-0.1-0.8-0.3-1
			c-0.2-0.3-0.5-0.5-0.9-0.6c-0.4-0.1-0.8-0.2-1.4-0.3c-0.5-0.1-1.1-0.1-1.6-0.1c-0.6,0-1.2,0-1.7,0s-1.2-0.1-1.7-0.2
			c-0.6,0.3-1.1,0.7-1.5,1.1c-0.4,0.4-0.6,0.9-0.6,1.5c0,0.4,0.1,0.7,0.3,1c0.2,0.3,0.5,0.6,0.9,0.8c0.4,0.2,0.9,0.4,1.5,0.6
			c0.6,0.1,1.3,0.2,2.1,0.2c0.8,0,1.5-0.1,2.1-0.2c0.6-0.1,1.2-0.4,1.6-0.6c0.4-0.3,0.8-0.6,1-1
			C285.5,409.6,285.6,409.2,285.6,408.7z M280.4,399.7c0.6,0,1.1-0.1,1.6-0.2c0.5-0.2,0.8-0.4,1.1-0.7s0.5-0.6,0.7-1.1
			c0.2-0.4,0.2-0.9,0.2-1.4c0-1-0.3-1.8-0.9-2.4c-0.6-0.6-1.5-0.9-2.7-0.9c-1.2,0-2.1,0.3-2.7,0.9c-0.6,0.6-0.9,1.4-0.9,2.4
			c0,0.5,0.1,0.9,0.2,1.4c0.2,0.4,0.4,0.8,0.7,1.1s0.7,0.5,1.1,0.7C279.3,399.7,279.8,399.7,280.4,399.7z"/>
		<path class="st2" d="M291.6,407.9v-16.6h1.7c0.3,0,0.5,0.1,0.7,0.2c0.1,0.1,0.2,0.3,0.2,0.6l0.2,2.6c0.6-1.2,1.3-2.1,2.1-2.7
			c0.8-0.6,1.8-1,2.9-1c0.5,0,0.9,0.1,1.2,0.2c0.4,0.1,0.7,0.2,1,0.4l-0.4,2.2c-0.1,0.3-0.2,0.4-0.5,0.4c-0.2,0-0.4-0.1-0.7-0.2
			c-0.3-0.1-0.8-0.2-1.3-0.2c-1,0-1.9,0.3-2.6,0.9c-0.7,0.6-1.3,1.5-1.7,2.6v10.6H291.6z"/>
		<path class="st2" d="M316.5,407.9h-1.3c-0.3,0-0.5,0-0.7-0.1c-0.2-0.1-0.3-0.3-0.3-0.6l-0.3-1.5c-0.4,0.4-0.9,0.7-1.3,1.1
			c-0.4,0.3-0.9,0.6-1.3,0.8c-0.5,0.2-1,0.4-1.5,0.5c-0.5,0.1-1.1,0.2-1.7,0.2c-0.6,0-1.3-0.1-1.8-0.3c-0.6-0.2-1.1-0.5-1.5-0.8
			c-0.4-0.4-0.7-0.8-1-1.4c-0.2-0.6-0.4-1.2-0.4-2c0-0.7,0.2-1.3,0.5-1.9c0.4-0.6,0.9-1.2,1.7-1.6c0.8-0.5,1.9-0.9,3.2-1.2
			c1.3-0.3,2.9-0.5,4.8-0.5v-1.3c0-1.3-0.3-2.3-0.8-3c-0.6-0.7-1.4-1-2.5-1c-0.7,0-1.3,0.1-1.8,0.3c-0.5,0.2-0.9,0.4-1.3,0.6
			c-0.4,0.2-0.7,0.4-0.9,0.6c-0.3,0.2-0.5,0.3-0.8,0.3c-0.2,0-0.4-0.1-0.5-0.2c-0.1-0.1-0.3-0.2-0.4-0.4l-0.5-0.9
			c0.9-0.9,1.9-1.6,3-2c1.1-0.4,2.2-0.7,3.5-0.7c0.9,0,1.8,0.2,2.5,0.5c0.7,0.3,1.3,0.7,1.8,1.3c0.5,0.5,0.9,1.2,1.1,2
			c0.3,0.8,0.4,1.6,0.4,2.6V407.9z M308.9,406.1c0.5,0,1-0.1,1.4-0.2c0.4-0.1,0.8-0.3,1.2-0.4c0.4-0.2,0.7-0.4,1.1-0.7
			c0.3-0.3,0.7-0.6,1-0.9v-3.4c-1.3,0-2.5,0.1-3.4,0.3c-0.9,0.2-1.7,0.4-2.3,0.7c-0.6,0.3-1,0.6-1.3,1c-0.3,0.4-0.4,0.8-0.4,1.3
			c0,0.4,0.1,0.8,0.2,1.1c0.1,0.3,0.3,0.6,0.6,0.8c0.2,0.2,0.5,0.4,0.9,0.4C308.1,406,308.5,406.1,308.9,406.1z"/>
		<path class="st2" d="M332.6,407.9c-0.4,0-0.7-0.2-0.8-0.6l-0.3-2c-0.7,0.9-1.5,1.6-2.4,2.1c-0.9,0.5-2,0.8-3.1,0.8
			c-1,0-1.8-0.2-2.6-0.6c-0.8-0.4-1.4-0.9-2-1.6c-0.5-0.7-1-1.6-1.3-2.7c-0.3-1.1-0.4-2.3-0.4-3.7c0-1.2,0.2-2.4,0.5-3.4
			s0.8-2,1.4-2.8c0.6-0.8,1.4-1.4,2.3-1.8c0.9-0.4,1.9-0.7,3-0.7c1,0,1.9,0.2,2.6,0.5c0.7,0.3,1.4,0.8,1.9,1.5v-9.2h2.9v24.2H332.6z
			 M326.9,405.7c1,0,1.8-0.2,2.5-0.7c0.7-0.4,1.4-1.1,2-1.9v-8.1c-0.5-0.7-1.1-1.2-1.8-1.5c-0.6-0.3-1.3-0.4-2.1-0.4
			c-1.6,0-2.7,0.6-3.6,1.7c-0.8,1.1-1.2,2.7-1.2,4.7c0,1.1,0.1,2,0.3,2.8c0.2,0.8,0.5,1.4,0.8,1.9c0.4,0.5,0.8,0.9,1.3,1.1
			S326.3,405.7,326.9,405.7z"/>
		<path class="st2" d="M345.8,391c1,0,1.9,0.2,2.8,0.5c0.8,0.3,1.6,0.8,2.2,1.4c0.6,0.6,1.1,1.4,1.4,2.3c0.3,0.9,0.5,2,0.5,3.2
			c0,0.5,0,0.8-0.1,0.9c-0.1,0.2-0.3,0.2-0.6,0.2H341c0,1.1,0.2,2,0.4,2.7c0.3,0.8,0.6,1.4,1.1,1.9c0.5,0.5,1,0.9,1.6,1.2
			c0.6,0.3,1.3,0.4,2.1,0.4c0.7,0,1.4-0.1,1.9-0.3c0.5-0.2,1-0.4,1.4-0.6c0.4-0.2,0.7-0.4,1-0.5c0.3-0.2,0.5-0.3,0.7-0.3
			c0.2,0,0.4,0.1,0.6,0.3l0.8,1.1c-0.4,0.4-0.8,0.8-1.3,1.1c-0.5,0.3-1,0.6-1.6,0.8c-0.6,0.2-1.2,0.4-1.8,0.5
			c-0.6,0.1-1.2,0.2-1.8,0.2c-1.2,0-2.2-0.2-3.2-0.6c-1-0.4-1.8-1-2.5-1.7c-0.7-0.8-1.3-1.7-1.7-2.8c-0.4-1.1-0.6-2.4-0.6-3.8
			c0-1.2,0.2-2.2,0.5-3.3c0.4-1,0.9-1.9,1.5-2.6c0.7-0.7,1.5-1.3,2.4-1.7S344.6,391,345.8,391z M345.9,393.1c-1.4,0-2.5,0.4-3.3,1.2
			c-0.8,0.8-1.3,1.9-1.5,3.4h9.1c0-0.7-0.1-1.3-0.3-1.9c-0.2-0.6-0.5-1.1-0.8-1.5c-0.4-0.4-0.8-0.7-1.3-1S346.6,393.1,345.9,393.1z"
			/>
		<path class="st2" d="M370.3,384.1c1,0,1.9,0.1,2.8,0.4s1.6,0.7,2.2,1.3c0.6,0.6,1.1,1.3,1.5,2.1c0.4,0.8,0.5,1.7,0.5,2.8
			c0,0.9-0.1,1.7-0.4,2.4c-0.3,0.7-0.6,1.5-1.1,2.1c-0.4,0.7-1,1.3-1.6,2c-0.6,0.6-1.2,1.3-1.9,2l-6.2,6.3c0.4-0.1,0.9-0.2,1.3-0.3
			c0.4-0.1,0.9-0.1,1.3-0.1h7.9c0.3,0,0.6,0.1,0.8,0.3c0.2,0.2,0.3,0.4,0.3,0.7v1.8h-15.7v-1c0-0.2,0-0.4,0.1-0.6
			c0.1-0.2,0.2-0.4,0.4-0.6l7.5-7.6c0.6-0.6,1.2-1.2,1.7-1.8c0.5-0.6,1-1.2,1.3-1.8c0.4-0.6,0.6-1.2,0.8-1.8
			c0.2-0.6,0.3-1.3,0.3-1.9s-0.1-1.3-0.3-1.8c-0.2-0.5-0.5-1-0.9-1.3c-0.4-0.3-0.8-0.6-1.3-0.8c-0.5-0.2-1.1-0.3-1.7-0.3
			c-0.6,0-1.1,0.1-1.6,0.3c-0.5,0.2-1,0.4-1.3,0.7c-0.4,0.3-0.7,0.7-1,1.1c-0.3,0.4-0.5,0.9-0.6,1.4c-0.1,0.3-0.2,0.5-0.4,0.7
			c-0.2,0.1-0.4,0.2-0.7,0.2c-0.1,0-0.1,0-0.2,0c-0.1,0-0.1,0-0.2,0l-1.5-0.3c0.2-1.1,0.4-2,0.9-2.9c0.4-0.8,1-1.5,1.7-2.1
			c0.7-0.6,1.4-1,2.3-1.3C368.3,384.2,369.3,384.1,370.3,384.1z"/>
		<path class="st2" d="M397.6,396.1c0,2.1-0.2,3.8-0.7,5.3c-0.4,1.5-1,2.8-1.8,3.7c-0.8,1-1.7,1.7-2.7,2.2c-1,0.5-2.2,0.7-3.4,0.7
			c-1.2,0-2.3-0.2-3.4-0.7c-1-0.5-1.9-1.2-2.7-2.2c-0.8-1-1.4-2.2-1.8-3.7c-0.4-1.5-0.7-3.3-0.7-5.3c0-2.1,0.2-3.8,0.7-5.4
			c0.4-1.5,1-2.8,1.8-3.8c0.8-1,1.7-1.7,2.7-2.2c1-0.5,2.2-0.7,3.4-0.7c1.2,0,2.3,0.2,3.4,0.7c1,0.5,2,1.2,2.7,2.2
			c0.8,1,1.4,2.2,1.8,3.8C397.3,392.3,397.6,394,397.6,396.1z M394.5,396.1c0-1.8-0.2-3.3-0.5-4.5c-0.3-1.2-0.7-2.2-1.2-3
			c-0.5-0.7-1.1-1.3-1.8-1.6c-0.7-0.3-1.4-0.5-2.1-0.5c-0.7,0-1.4,0.2-2.1,0.5c-0.7,0.3-1.3,0.9-1.8,1.6c-0.5,0.7-0.9,1.7-1.2,3
			c-0.3,1.2-0.4,2.7-0.4,4.5c0,1.8,0.1,3.3,0.4,4.5c0.3,1.2,0.7,2.2,1.2,2.9c0.5,0.7,1.1,1.3,1.8,1.6c0.7,0.3,1.4,0.5,2.1,0.5
			c0.7,0,1.4-0.2,2.1-0.5c0.7-0.3,1.3-0.9,1.8-1.6c0.5-0.7,0.9-1.7,1.2-2.9C394.4,399.4,394.5,397.9,394.5,396.1z"/>
		<path class="st2" d="M403.3,405.6h5.1v-16.1c0-0.5,0-1,0.1-1.5l-4.2,3.6c-0.1,0.1-0.2,0.2-0.3,0.2c-0.1,0-0.2,0.1-0.3,0.1
			c-0.2,0-0.3,0-0.4-0.1c-0.1-0.1-0.2-0.2-0.3-0.3l-0.9-1.3l7-6.1h2.4v21.4h4.6v2.2h-12.6V405.6z"/>
		<path class="st2" d="M426.6,398.2c-0.9,0-1.7-0.1-2.5-0.4c-0.8-0.3-1.5-0.7-2.1-1.3c-0.6-0.6-1.1-1.3-1.4-2.1
			c-0.4-0.8-0.5-1.8-0.5-2.9c0-1,0.2-2,0.6-2.9c0.4-0.9,0.9-1.7,1.6-2.3s1.5-1.2,2.5-1.6c1-0.4,2-0.6,3.1-0.6c1.1,0,2.2,0.2,3.1,0.6
			c0.9,0.4,1.7,0.9,2.4,1.6c0.7,0.7,1.2,1.5,1.5,2.4c0.4,0.9,0.5,2,0.5,3.1c0,0.7-0.1,1.3-0.2,1.9c-0.1,0.6-0.3,1.2-0.5,1.8
			c-0.2,0.6-0.5,1.2-0.9,1.7c-0.3,0.6-0.7,1.2-1.1,1.8l-5.7,8.3c-0.1,0.2-0.3,0.4-0.6,0.5c-0.3,0.1-0.6,0.2-0.9,0.2h-2.7l7.2-9.4
			c0.2-0.3,0.5-0.6,0.7-0.9c0.2-0.3,0.4-0.6,0.6-0.9c-0.6,0.5-1.3,0.8-2,1.1C428.3,398.1,427.5,398.2,426.6,398.2z M432.5,391.3
			c0-0.7-0.1-1.4-0.4-2c-0.2-0.6-0.6-1.1-1-1.5c-0.4-0.4-0.9-0.7-1.5-1c-0.6-0.2-1.2-0.3-1.9-0.3c-0.7,0-1.4,0.1-2,0.4
			c-0.6,0.2-1.1,0.6-1.5,1c-0.4,0.4-0.7,0.9-1,1.5c-0.2,0.6-0.3,1.2-0.3,1.9c0,0.7,0.1,1.4,0.3,2c0.2,0.6,0.5,1.1,0.9,1.5
			c0.4,0.4,0.9,0.7,1.5,0.9c0.6,0.2,1.2,0.3,1.9,0.3c0.8,0,1.5-0.1,2.1-0.4c0.6-0.3,1.1-0.6,1.5-1c0.4-0.4,0.7-0.9,1-1.5
			C432.4,392.5,432.5,391.9,432.5,391.3z"/>
	</g>
</g>
</svg>
