<?xml version="1.0" encoding="utf-8"?>
<!-- Generator: Adobe Illustrator 22.1.0, SVG Export Plug-In . SVG Version: 6.00 Build 0)  -->
<svg version="1.1" id="Layer_1" xmlns="http://www.w3.org/2000/svg" xmlns:xlink="http://www.w3.org/1999/xlink" x="0px" y="0px"
	 viewBox="0 0 20 20" style="enable-background:new 0 0 20 20;" xml:space="preserve">
<style type="text/css">
	.st0{fill:#28AAE1;}
	.st1{fill:#FFD64F;}
</style>
<g>
	<path class="st0" d="M9.9,0.1c-5.1,0-4.8,2.2-4.8,2.2l0,2.3H10v0.7H3.2C3.2,5.2,0,4.9,0,10c0,5.1,2.8,4.9,2.8,4.9h1.7v-2.4
		c0,0-0.1-2.8,2.8-2.8h4.8c0,0,2.7,0,2.7-2.6V2.7C14.8,2.7,15.2,0.1,9.9,0.1L9.9,0.1L9.9,0.1z M7.3,1.6c0.5,0,0.9,0.4,0.9,0.9
		S7.7,3.3,7.3,3.3c-0.5,0-0.9-0.4-0.9-0.9C6.4,2,6.8,1.6,7.3,1.6L7.3,1.6L7.3,1.6z"/>
	<path class="st1" d="M10.1,19.9c5.1,0,4.8-2.2,4.8-2.2l0-2.3H10v-0.7h6.8c0,0,3.2,0.4,3.2-4.8c0-5.1-2.8-4.9-2.8-4.9h-1.7v2.4
		c0,0,0.1,2.8-2.8,2.8H7.9c0,0-2.7,0-2.7,2.6v4.4C5.2,17.3,4.8,19.9,10.1,19.9L10.1,19.9L10.1,19.9z M12.7,18.4
		c-0.5,0-0.9-0.4-0.9-0.9c0-0.5,0.4-0.9,0.9-0.9c0.5,0,0.9,0.4,0.9,0.9C13.6,18,13.2,18.4,12.7,18.4L12.7,18.4L12.7,18.4z"/>
</g>
</svg>
