<?xml version="1.0" encoding="utf-8"?>
<!-- Generator: Adobe Illustrator 22.1.0, SVG Export Plug-In . SVG Version: 6.00 Build 0)  -->
<svg version="1.1" id="Layer_1" xmlns="http://www.w3.org/2000/svg" xmlns:xlink="http://www.w3.org/1999/xlink" x="0px" y="0px"
	 viewBox="0 0 40 40" style="enable-background:new 0 0 40 40;" xml:space="preserve">
<style type="text/css">
	.st0{fill:#FFFFFF;}
</style>
<g>
	<path class="st0" d="M30,19.3c-0.3-5-4.3-9-9.3-9.3v0H20h-0.7v0c-5,0.3-9,4.3-9.3,9.3h0V20v0.7h0c0.3,5,4.3,9,9.3,9.3v0H20h0.7v0
		c5-0.3,9-4.3,9.3-9.3h0V20L30,19.3L30,19.3z M16.3,12.2c-0.6,0.9-1.2,1.9-1.6,3.2h-2C13.6,14,14.8,12.9,16.3,12.2z M12,16.7h2.3
		c-0.2,0.8-0.3,1.7-0.3,2.7h-2.7C11.4,18.4,11.7,17.5,12,16.7z M11.4,20.7H14c0,0.9,0.1,1.8,0.3,2.7H12
		C11.7,22.5,11.4,21.6,11.4,20.7z M12.7,24.7h2c0.4,1.2,0.9,2.3,1.6,3.2C14.8,27.1,13.6,26,12.7,24.7z M19.3,28.6
		c-1.4-0.4-2.6-1.8-3.3-3.9h3.3V28.6z M19.3,23.3h-3.6c-0.2-0.8-0.3-1.7-0.3-2.7h4V23.3z M19.3,19.3h-4c0-0.9,0.2-1.8,0.3-2.7h3.6
		V19.3z M19.3,15.3h-3.3c0.7-2.1,1.9-3.5,3.3-3.9V15.3z M27.3,15.3h-2c-0.4-1.2-0.9-2.3-1.6-3.2C25.2,12.9,26.4,14,27.3,15.3z
		 M20.7,11.4c1.4,0.4,2.6,1.8,3.3,3.9h-3.3V11.4z M20.7,16.7h3.6c0.2,0.8,0.3,1.7,0.3,2.7h-4V16.7z M20.7,20.7h4
		c0,0.9-0.2,1.8-0.3,2.7h-3.6V20.7z M20.7,28.6v-3.9h3.3C23.2,26.7,22,28.2,20.7,28.6z M23.7,27.8c0.6-0.9,1.2-1.9,1.6-3.2h2
		C26.4,26,25.2,27.1,23.7,27.8z M28,23.3h-2.3c0.2-0.8,0.3-1.7,0.3-2.7h2.7C28.6,21.6,28.3,22.5,28,23.3z M26,19.3
		c0-0.9-0.1-1.8-0.3-2.7H28c0.3,0.8,0.6,1.7,0.6,2.7H26z"/>
</g>
</svg>
