<?xml version="1.0" encoding="utf-8"?>
<!-- Generator: Adobe Illustrator 23.0.2, SVG Export Plug-In . SVG Version: 6.00 Build 0)  -->
<svg version="1.1" id="Layer_1" xmlns="http://www.w3.org/2000/svg" xmlns:xlink="http://www.w3.org/1999/xlink" x="0px" y="0px"
	 viewBox="0 0 1000 400" style="enable-background:new 0 0 1000 400;" xml:space="preserve">
<style type="text/css">
	.st0{fill:#103E2E;}
</style>
<g>
	<g>
		<g>
			<path class="st0" d="M156.1,42.8h49.2v227.8c-25.2,4.8-43.8,6.7-63.9,6.7c-60.1,0-91.4-27.2-91.4-79.3
				c0-50.2,33.2-82.8,84.7-82.8c8,0,14.1,0.6,21.4,2.6L156.1,42.8L156.1,42.8z M156.1,157.5c-5.8-1.9-10.5-2.6-16.6-2.6
				c-24.9,0-39.3,15.3-39.3,42.2c0,26.2,13.7,40.6,39,40.6c5.4,0,9.9-0.3,16.9-1.3L156.1,157.5z"/>
			<path class="st0" d="M283.6,118.8v114.1c0,39.3-2.9,58.2-11.5,74.5c-8,15.7-18.5,25.6-40.3,36.4l-45.7-21.7
				c21.7-10.2,32.3-19.2,39-32.9c7-14.1,9.3-30.4,9.3-73.2v-97.2H283.6z M234.4,43h49.2v50.5h-49.2V43z"/>
			<path class="st0" d="M313.4,130c21.7-10.2,42.5-14.7,65.2-14.7c25.2,0,41.9,6.7,49.2,19.8c4.2,7.3,5.4,16.9,5.4,37.4v100
				c-22.1,3.2-49.9,5.4-70.3,5.4c-41.2,0-59.8-14.4-59.8-46.3c0-34.5,24.6-50.5,85-55.6v-10.9c0-8.9-4.5-12.1-16.9-12.1
				c-18.2,0-38.7,5.1-57.9,15L313.4,130L313.4,130z M390.4,208.3c-32.6,3.2-43.1,8.3-43.1,21.1c0,9.6,6.1,14.1,19.5,14.1
				c7.4,0,14.1-0.6,23.7-2.2L390.4,208.3L390.4,208.3z"/>
			<path class="st0" d="M457.2,126.5c29.1-7.7,53.1-11.2,77.3-11.2c25.2,0,43.5,5.7,54.3,16.9c10.2,10.5,13.4,22,13.4,46.7v96.5
				h-49.2v-94.6c0-18.9-6.4-25.9-24-25.9c-6.7,0-12.8,0.6-22.7,3.5v117h-49.2L457.2,126.5L457.2,126.5z"/>
			<path class="st0" d="M621.4,302.2c17.3,8.9,34.5,13.1,52.7,13.1c32.3,0,46-13.1,46-44.4c0-0.3,0-0.6,0-1
				c-9.6,4.8-19.2,6.7-32,6.7c-43.1,0-70.6-28.4-70.6-73.5c0-55.9,40.6-87.6,112.5-87.6c21.1,0,40.6,2.2,64.2,7l-16.9,35.5
				c-13.1-2.6-1-0.3-11-1.3v5.1l0.6,20.8l0.3,26.8c0.3,6.7,0.3,13.4,0.6,20.1c0,6.1,0,9,0,13.4c0,42.2-3.5,62-14.1,78.3
				c-15.3,24-41.9,35.8-79.6,35.8c-19.2,0-35.8-2.9-53.1-9.6L621.4,302.2L621.4,302.2z M719.2,155.2c-0.6,0-1.3,0-1.6,0h-3.5
				c-9.6-0.3-20.8,2.2-28.4,7c-11.8,6.7-17.9,18.9-17.9,36.1c0,24.6,12.1,38.7,33.9,38.7c6.7,0,12.1-1.3,18.5-3.2v-3.5v-13.4
				c0-5.8-0.3-12.1-0.3-18.9l-0.3-22.7l-0.3-16.3L719.2,155.2L719.2,155.2z"/>
			<path class="st0" d="M870.7,114.6c49.2,0,79.3,31,79.3,81.2c0,51.5-31.3,83.7-81.2,83.7c-49.2,0-79.6-31-79.6-80.9
				C789.2,146.9,820.6,114.6,870.7,114.6z M869.8,239.9c18.9,0,30-15.7,30-42.8c0-26.8-10.9-42.8-29.7-42.8
				c-19.5,0-30.7,15.7-30.7,42.8C839.4,224.3,850.6,239.9,869.8,239.9z"/>
		</g>
	</g>
</g>
</svg>
