<?xml version="1.0" encoding="utf-8"?>
<!-- Generator: Adobe Illustrator 23.0.1, SVG Export Plug-In . SVG Version: 6.00 Build 0)  -->
<svg version="1.1" id="Layer_1" xmlns="http://www.w3.org/2000/svg" xmlns:xlink="http://www.w3.org/1999/xlink" x="0px" y="0px"
	 viewBox="0 0 1000 404" style="enable-background:new 0 0 1000 404;" xml:space="preserve">
<style type="text/css">
	.st0{fill:#FFFFFF;}
</style>
<g>
	<g>
		<path class="st0" d="M182.3,56.4h45.5V267c-23.3,4.4-40.5,6.2-59.1,6.2c-55.5,0-84.5-25.1-84.5-73.3c0-46.4,30.7-76.5,78.3-76.5
			c7.4,0,13,0.6,19.8,2.4L182.3,56.4L182.3,56.4z M182.3,162.4c-5.3-1.8-9.7-2.4-15.4-2.4c-23,0-36.3,14.2-36.3,39
			c0,24.2,12.7,37.5,36,37.5c5,0,9.2-0.3,15.7-1.2L182.3,162.4z"/>
		<path class="st0" d="M300.1,126.7v105.5c0,36.3-2.7,53.8-10.6,68.8c-7.4,14.5-17.1,23.6-37.2,33.7l-42.2-20.1
			c20.1-9.5,29.8-17.7,36-30.4c6.5-13,8.6-28.1,8.6-67.6v-89.8H300.1z M254.7,56.7h45.5v46.7h-45.5V56.7z"/>
		<path class="st0" d="M327.6,137c20.1-9.5,39.3-13.6,60.3-13.6c23.3,0,38.7,6.2,45.5,18.3c3.8,6.8,5,15.7,5,34.6v92.5
			c-20.4,3-46.1,5-65,5c-38.1,0-55.2-13.3-55.2-42.8c0-31.9,22.7-46.7,78.6-51.4v-10c0-8.3-4.1-11.2-15.7-11.2
			c-16.8,0-35.7,4.7-53.5,13.9L327.6,137L327.6,137z M398.8,209.4c-30.1,3-39.9,7.7-39.9,19.5c0,8.9,5.6,13,18,13
			c6.8,0,13-0.6,21.9-2.1L398.8,209.4L398.8,209.4z"/>
		<path class="st0" d="M460.5,133.7c26.9-7.1,49-10.3,71.5-10.3c23.3,0,40.2,5.3,50.2,15.7c9.5,9.7,12.4,20.4,12.4,43.1v89.2h-45.5
			V184c0-17.4-5.9-23.9-22.2-23.9c-6.2,0-11.8,0.6-21,3.3v108.1h-45.5L460.5,133.7L460.5,133.7z"/>
		<path class="st0" d="M612.3,296.2c16,8.3,31.9,12.1,48.7,12.1c29.8,0,42.5-12.1,42.5-41.1c0-0.3,0-0.6,0-0.9
			c-8.9,4.4-17.7,6.2-29.5,6.2c-39.9,0-65.3-26.3-65.3-67.9c0-51.7,37.5-80.9,104-80.9c19.5,0,37.5,2.1,59.4,6.5L756.6,163
			c-12.1-2.4-1-0.3-10.1-1.2v4.7l0.6,19.2l0.3,24.8c0.3,6.2,0.3,12.4,0.6,18.6c0,5.6,0,8.3,0,12.4c0,39-3.2,57.3-13,72.4
			c-14.2,22.2-38.7,33.1-73.5,33.1c-17.7,0-33.1-2.7-49-8.9L612.3,296.2L612.3,296.2z M702.7,160.3c-0.6,0-1.2,0-1.5,0H698
			c-8.9-0.3-19.2,2.1-26.3,6.5c-10.9,6.2-16.5,17.4-16.5,33.4c0,22.7,11.2,35.7,31.3,35.7c6.2,0,11.2-1.2,17.1-3v-3.2v-12.4
			c0-5.3-0.3-11.2-0.3-17.4l-0.3-21l-0.3-15.1L702.7,160.3L702.7,160.3z"/>
		<path class="st0" d="M842.7,122.8c45.5,0,73.3,28.7,73.3,75c0,47.6-28.9,77.4-75,77.4c-45.5,0-73.6-28.7-73.6-74.7
			C767.4,152.6,796.4,122.8,842.7,122.8z M841.9,238.6c17.4,0,27.8-14.5,27.8-39.6c0-24.8-10-39.6-27.5-39.6
			c-18,0-28.4,14.5-28.4,39.6C813.8,224.1,824.1,238.6,841.9,238.6z"/>
	</g>
</g>
</svg>
