<?xml version="1.0" encoding="UTF-8" standalone="no"?><!DOCTYPE svg PUBLIC "-//W3C//DTD SVG 1.1//EN" "http://www.w3.org/Graphics/SVG/1.1/DTD/svg11.dtd"><svg width="100%" height="100%" viewBox="0 0 231 221" version="1.1" xmlns="http://www.w3.org/2000/svg" xmlns:xlink="http://www.w3.org/1999/xlink" xml:space="preserve" xmlns:serif="http://www.serif.com/" style="fill-rule:evenodd;clip-rule:evenodd;stroke-linejoin:round;stroke-miterlimit:1.41421;"><path d="M65.057,202.161l6.248,6.247c1.819,1.819 5.868,6.293 3.77,12.311c0,0 3.848,-6.379 -2.927,-13.154c6.775,6.775 13.155,2.926 13.155,2.926c-6.018,2.099 -10.492,-1.951 -12.311,-3.77l-6.248,-6.247l-1.977,-0.29l0.29,1.977Z" style="fill:#28aae1;fill-rule:nonzero;"/><path d="M141.438,75.539c-1.336,0 -2.672,-0.509 -3.691,-1.529l-33.303,-33.303c-2.036,-2.035 -5.347,-2.035 -7.382,0c-2.035,2.035 -2.035,5.346 0,7.382l15.494,15.493c2.038,2.039 2.038,5.343 0,7.382c-2.039,2.038 -5.344,2.038 -7.382,0l-15.494,-15.494c-6.105,-6.105 -6.105,-16.039 0,-22.145c6.106,-6.106 16.04,-6.106 22.145,0l33.304,33.304c2.038,2.038 2.038,5.343 0,7.381c-1.019,1.02 -2.355,1.529 -3.691,1.529" style="fill:#28aae1;fill-rule:nonzero;"/><path d="M52.857,75.539c-1.336,0 -2.672,-0.509 -3.691,-1.529l-6.412,-6.412c-6.105,-6.105 -6.105,-16.039 0,-22.145c6.106,-6.106 16.04,-6.105 22.145,0l17.696,17.696c2.038,2.038 2.038,5.343 0,7.381c-2.038,2.039 -5.343,2.039 -7.382,0l-17.695,-17.695c-2.036,-2.035 -5.347,-2.035 -7.382,0c-2.035,2.035 -2.035,5.347 0,7.382l6.412,6.412c2.038,2.038 2.038,5.343 0,7.381c-1.019,1.02 -2.355,1.529 -3.691,1.529" style="fill:#ffd64f;fill-rule:nonzero;"/><path d="M51.66,133.396c-1.336,0 -2.672,-0.51 -3.691,-1.529l-41.701,-41.702c-6.106,-6.105 -6.106,-16.039 -0.001,-22.145c6.106,-6.105 16.041,-6.105 22.146,0l26.938,26.938c2.038,2.039 2.038,5.344 0,7.382c-2.039,2.038 -5.343,2.038 -7.382,0l-26.938,-26.938c-2.035,-2.035 -5.346,-2.035 -7.382,0c-2.035,2.035 -2.035,5.346 0,7.382l41.702,41.701c2.038,2.038 2.038,5.343 0,7.382c-1.019,1.019 -2.355,1.529 -3.691,1.529" style="fill:#28aae1;fill-rule:nonzero;"/><path d="M90.211,197.142c-4.01,0 -8.02,-1.526 -11.073,-4.579l-40.804,-40.804c-2.038,-2.038 -2.038,-5.343 0,-7.382c2.038,-2.038 5.344,-2.038 7.382,0l40.804,40.804c2.035,2.035 5.347,2.035 7.382,0c2.035,-2.035 2.035,-5.346 0,-7.382l-5.663,-5.662c-2.038,-2.039 -2.038,-5.343 0,-7.382c2.039,-2.038 5.344,-2.038 7.382,0l5.663,5.663c6.105,6.105 6.105,16.039 0,22.145c-3.053,3.053 -7.063,4.579 -11.073,4.579" style="fill:#ffd64f;fill-rule:nonzero;"/><path d="M33.69,174.48c-1.336,0 -2.672,-0.51 -3.691,-1.529l-25.42,-25.42c-6.105,-6.106 -6.105,-16.04 0,-22.145c6.106,-6.105 16.04,-6.105 22.145,0l4.268,4.268c2.039,2.038 2.039,5.343 0,7.382c-2.038,2.038 -5.343,2.038 -7.381,0l-4.268,-4.269c-2.036,-2.034 -5.347,-2.034 -7.382,0c-2.035,2.035 -2.035,5.347 0,7.382l25.42,25.42c2.038,2.038 2.038,5.343 0,7.382c-1.019,1.019 -2.355,1.529 -3.691,1.529" style="fill:#28aae1;fill-rule:nonzero;"/><path d="M44.129,179.699c-2.107,2.189 -2.082,5.673 0.076,7.831c1.132,0.932 1.968,2.174 2.405,3.574l0.52,1.668c1.156,3.7 3.872,6.709 7.434,8.236c0,0 3.835,1.824 6.224,2.98c2.991,1.448 5.199,1.303 7.142,-0.641c1.944,-1.944 2.089,-4.151 0.642,-7.142c-1.156,-2.39 -2.981,-6.224 -2.981,-6.224c-1.526,-3.563 -4.536,-6.279 -8.236,-7.434l-1.668,-0.521c-1.399,-0.437 -2.641,-1.272 -3.573,-2.404c-2.159,-2.159 -5.642,-2.184 -7.831,-0.076c-0.027,0.025 -0.051,0.051 -0.076,0.077c-0.026,0.026 -0.052,0.05 -0.078,0.076" style="fill:#ffd64f;fill-rule:nonzero;"/><path d="M63.07,192.869c0,-1.544 1.252,-2.796 2.797,-2.796c1.544,0 2.796,1.252 2.796,2.796c0,1.544 -1.252,2.796 -2.796,2.796c-1.545,0 -2.797,-1.252 -2.797,-2.796" style="fill:#28aae1;fill-rule:nonzero;"/><path d="M65.866,187.293l0,8.372l-4.775,0l0,-7.3c0,-0.592 0.48,-1.072 1.072,-1.072l3.703,0Z" style="fill:#ffd64f;fill-rule:nonzero;"/><path d="M72.512,94.266l3.247,0c1.624,0 2.792,-0.387 3.505,-1.162c0.713,-0.775 1.07,-1.857 1.07,-3.246c0,-0.615 -0.092,-1.175 -0.277,-1.679c-0.184,-0.504 -0.464,-0.938 -0.839,-1.3c-0.375,-0.363 -0.849,-0.643 -1.42,-0.84c-0.572,-0.197 -1.252,-0.295 -2.039,-0.295l-3.247,0l0,8.522Zm0,4.704l0,8.985l-6.235,0l0,-26.878l9.482,0c1.894,0 3.52,0.224 4.879,0.673c1.359,0.449 2.478,1.067 3.358,1.854c0.879,0.787 1.528,1.716 1.946,2.785c0.418,1.071 0.627,2.226 0.627,3.469c0,1.34 -0.215,2.57 -0.645,3.689c-0.431,1.119 -1.089,2.079 -1.974,2.878c-0.886,0.8 -2.008,1.424 -3.367,1.872c-1.359,0.449 -2.967,0.673 -4.824,0.673l-3.247,0Z" style="fill:#fff;fill-rule:nonzero;"/><path d="M98.964,112.917c-0.172,0.381 -0.381,0.661 -0.627,0.839c-0.246,0.178 -0.64,0.268 -1.181,0.268l-4.279,0l3.689,-7.748l-7.637,-17.452l5.054,0c0.443,0 0.787,0.099 1.033,0.296c0.246,0.197 0.418,0.43 0.517,0.701l3.136,8.246c0.295,0.763 0.535,1.525 0.719,2.287c0.123,-0.393 0.259,-0.781 0.406,-1.162c0.148,-0.381 0.289,-0.768 0.425,-1.162l2.841,-8.209c0.098,-0.283 0.292,-0.52 0.581,-0.711c0.288,-0.19 0.599,-0.286 0.931,-0.286l4.612,0l-10.22,24.093Z" style="fill:#fff;fill-rule:nonzero;"/><path d="M75.943,135.046c0.972,0 1.793,-0.113 2.463,-0.341c0.67,-0.227 1.218,-0.538 1.642,-0.931c0.424,-0.394 0.732,-0.858 0.922,-1.394c0.191,-0.534 0.286,-1.109 0.286,-1.724c0,-1.254 -0.427,-2.241 -1.282,-2.961c-0.855,-0.719 -2.204,-1.079 -4.049,-1.079l-5.331,0l0,8.43l5.349,0Zm-5.349,-19.775l0,8.301l4.316,0c1.845,0 3.222,-0.356 4.132,-1.07c0.911,-0.713 1.365,-1.74 1.365,-3.081c0,-1.463 -0.427,-2.521 -1.282,-3.173c-0.854,-0.651 -2.192,-0.977 -4.012,-0.977l-4.519,0Zm4.519,-3.376c1.697,0 3.148,0.163 4.354,0.489c1.205,0.326 2.195,0.79 2.97,1.392c0.775,0.603 1.344,1.338 1.706,2.205c0.363,0.867 0.544,1.842 0.544,2.924c0,0.627 -0.095,1.233 -0.285,1.817c-0.191,0.584 -0.486,1.132 -0.886,1.642c-0.4,0.51 -0.901,0.968 -1.503,1.374c-0.603,0.406 -1.316,0.744 -2.14,1.015c3.763,0.799 5.644,2.797 5.644,5.995c0,1.132 -0.212,2.168 -0.636,3.108c-0.424,0.941 -1.039,1.753 -1.844,2.435c-0.806,0.683 -1.799,1.215 -2.98,1.596c-1.181,0.381 -2.527,0.572 -4.04,0.572l-9.74,0l0,-26.564l8.836,0Z" style="fill:#fff;fill-rule:nonzero;"/><path d="M99.059,130.232c-1.415,0.049 -2.608,0.163 -3.579,0.341c-0.972,0.178 -1.759,0.406 -2.362,0.682c-0.602,0.277 -1.036,0.606 -1.3,0.987c-0.265,0.382 -0.397,0.8 -0.397,1.255c0,0.442 0.071,0.821 0.213,1.134c0.141,0.314 0.338,0.572 0.589,0.775c0.253,0.203 0.548,0.35 0.886,0.443c0.338,0.092 0.71,0.138 1.117,0.138c1.032,0 1.921,-0.194 2.665,-0.581c0.744,-0.387 1.466,-0.95 2.168,-1.688l0,-3.486Zm-10.515,-7.97c2.127,-1.98 4.66,-2.97 7.6,-2.97c1.082,0 2.044,0.175 2.887,0.526c0.842,0.351 1.55,0.846 2.121,1.485c0.572,0.639 1.009,1.399 1.31,2.278c0.301,0.88 0.452,1.854 0.452,2.924l0,11.954l-1.771,0c-0.381,0 -0.67,-0.058 -0.867,-0.176c-0.197,-0.116 -0.363,-0.352 -0.498,-0.71l-0.388,-1.531c-0.479,0.431 -0.953,0.816 -1.42,1.153c-0.467,0.339 -0.95,0.625 -1.448,0.858c-0.498,0.234 -1.033,0.409 -1.605,0.526c-0.572,0.117 -1.202,0.175 -1.891,0.175c-0.762,0 -1.473,-0.104 -2.13,-0.313c-0.659,-0.209 -1.227,-0.526 -1.707,-0.951c-0.48,-0.423 -0.858,-0.95 -1.134,-1.577c-0.277,-0.627 -0.415,-1.365 -0.415,-2.213c0,-0.726 0.193,-1.433 0.581,-2.122c0.387,-0.688 1.026,-1.306 1.918,-1.854c0.892,-0.547 2.066,-0.999 3.524,-1.356c1.457,-0.356 3.256,-0.559 5.396,-0.608l0,-1.255c0,-1.353 -0.29,-2.361 -0.867,-3.025c-0.579,-0.664 -1.427,-0.996 -2.546,-0.996c-0.763,0 -1.402,0.095 -1.919,0.286c-0.516,0.191 -0.966,0.396 -1.346,0.618c-0.382,0.221 -0.72,0.427 -1.015,0.618c-0.295,0.19 -0.609,0.285 -0.941,0.285c-0.27,0 -0.501,-0.07 -0.692,-0.212c-0.191,-0.141 -0.347,-0.316 -0.47,-0.525l-0.719,-1.292Z" style="fill:#fff;fill-rule:nonzero;"/><path d="M67.633,149.086l0,3.487l2.165,0c0.387,0 0.719,-0.045 0.996,-0.133c0.277,-0.089 0.505,-0.213 0.685,-0.374c0.179,-0.161 0.31,-0.351 0.394,-0.573c0.084,-0.221 0.126,-0.464 0.126,-0.73c0,-0.517 -0.183,-0.926 -0.548,-1.226c-0.366,-0.301 -0.919,-0.451 -1.66,-0.451l-2.158,0Zm0,-0.964l1.788,0c0.382,0 0.713,-0.042 0.992,-0.126c0.28,-0.083 0.511,-0.2 0.695,-0.349c0.184,-0.149 0.32,-0.33 0.409,-0.541c0.088,-0.212 0.133,-0.444 0.133,-0.696c0,-0.586 -0.177,-1.017 -0.531,-1.292c-0.354,-0.275 -0.904,-0.412 -1.649,-0.412l-1.837,0l0,3.416Zm-1.356,5.526l0,-10.011l3.193,0c0.615,0 1.145,0.06 1.59,0.182c0.444,0.121 0.81,0.293 1.096,0.516c0.287,0.224 0.499,0.497 0.636,0.821c0.137,0.324 0.206,0.688 0.206,1.093c0,0.248 -0.038,0.485 -0.115,0.713c-0.077,0.229 -0.193,0.44 -0.35,0.636c-0.156,0.196 -0.351,0.37 -0.586,0.524c-0.236,0.154 -0.512,0.28 -0.828,0.377c0.731,0.145 1.283,0.408 1.656,0.79c0.372,0.382 0.559,0.885 0.559,1.509c0,0.424 -0.079,0.81 -0.234,1.16c-0.157,0.349 -0.385,0.649 -0.685,0.901c-0.301,0.251 -0.669,0.446 -1.104,0.583c-0.436,0.138 -0.933,0.206 -1.492,0.206l-3.542,0Z" style="fill:#fff;fill-rule:nonzero;"/><path d="M77.602,147.374c-0.601,0 -1.073,0.174 -1.418,0.521c-0.345,0.347 -0.559,0.828 -0.643,1.443l3.85,0c0,-0.289 -0.04,-0.553 -0.119,-0.793c-0.08,-0.24 -0.196,-0.447 -0.35,-0.622c-0.153,-0.174 -0.341,-0.31 -0.562,-0.405c-0.221,-0.096 -0.474,-0.144 -0.758,-0.144m-0.028,-0.914c0.424,0 0.815,0.07 1.174,0.212c0.359,0.143 0.668,0.347 0.929,0.615c0.261,0.268 0.465,0.599 0.611,0.992c0.147,0.394 0.221,0.842 0.221,1.345c0,0.196 -0.021,0.326 -0.063,0.391c-0.042,0.065 -0.122,0.098 -0.238,0.098l-4.709,0c0.01,0.447 0.07,0.836 0.182,1.167c0.112,0.331 0.265,0.607 0.461,0.828c0.196,0.221 0.429,0.387 0.698,0.496c0.271,0.11 0.573,0.164 0.909,0.164c0.312,0 0.581,-0.036 0.807,-0.108c0.226,-0.072 0.42,-0.15 0.583,-0.234c0.163,-0.084 0.299,-0.162 0.409,-0.234c0.109,-0.072 0.204,-0.109 0.283,-0.109c0.102,0 0.181,0.04 0.237,0.119l0.35,0.454c-0.154,0.187 -0.338,0.349 -0.552,0.486c-0.215,0.137 -0.444,0.25 -0.688,0.339c-0.245,0.088 -0.498,0.155 -0.758,0.199c-0.261,0.044 -0.52,0.066 -0.776,0.066c-0.489,0 -0.939,-0.083 -1.352,-0.248c-0.412,-0.165 -0.768,-0.407 -1.069,-0.727c-0.3,-0.318 -0.534,-0.713 -0.702,-1.184c-0.168,-0.47 -0.251,-1.01 -0.251,-1.62c0,-0.494 0.075,-0.955 0.226,-1.384c0.152,-0.428 0.369,-0.8 0.654,-1.114c0.284,-0.315 0.631,-0.561 1.041,-0.741c0.41,-0.179 0.871,-0.268 1.383,-0.268" style="fill:#fff;fill-rule:nonzero;"/><rect x="81.884" y="143.357" width="1.244" height="10.291" style="fill:#fff;"/><path d="M87.355,150.19c0.252,0 0.474,-0.035 0.667,-0.105c0.193,-0.07 0.356,-0.167 0.486,-0.293c0.13,-0.126 0.228,-0.276 0.293,-0.451c0.065,-0.174 0.098,-0.367 0.098,-0.576c0,-0.433 -0.131,-0.778 -0.395,-1.034c-0.263,-0.256 -0.646,-0.384 -1.149,-0.384c-0.499,0 -0.879,0.128 -1.142,0.384c-0.263,0.256 -0.395,0.601 -0.395,1.034c0,0.209 0.034,0.402 0.101,0.576c0.068,0.175 0.167,0.325 0.297,0.451c0.131,0.126 0.291,0.223 0.482,0.293c0.191,0.07 0.41,0.105 0.657,0.105m2.208,3.818c0,-0.181 -0.049,-0.326 -0.147,-0.435c-0.098,-0.109 -0.231,-0.194 -0.398,-0.253c-0.168,-0.059 -0.361,-0.103 -0.58,-0.132c-0.219,-0.028 -0.45,-0.043 -0.692,-0.043l-0.74,0c-0.252,0 -0.492,-0.031 -0.72,-0.094c-0.265,0.126 -0.481,0.28 -0.646,0.462c-0.166,0.182 -0.248,0.399 -0.248,0.651c0,0.158 0.041,0.306 0.122,0.444c0.082,0.137 0.206,0.257 0.374,0.357c0.168,0.1 0.378,0.179 0.632,0.238c0.254,0.058 0.553,0.087 0.898,0.087c0.335,0 0.636,-0.03 0.901,-0.092c0.266,-0.062 0.49,-0.15 0.674,-0.264c0.184,-0.114 0.325,-0.25 0.423,-0.406c0.098,-0.157 0.147,-0.331 0.147,-0.52m-2.208,-7.556c0.308,0 0.595,0.034 0.863,0.102c0.268,0.067 0.511,0.166 0.73,0.296l1.921,0l0,0.462c0,0.153 -0.098,0.251 -0.293,0.293l-0.804,0.112c0.159,0.303 0.238,0.64 0.238,1.013c0,0.345 -0.066,0.658 -0.199,0.939c-0.133,0.282 -0.317,0.524 -0.552,0.724c-0.236,0.2 -0.515,0.354 -0.838,0.461c-0.324,0.107 -0.68,0.16 -1.066,0.16c-0.331,0 -0.643,-0.039 -0.936,-0.118c-0.149,0.096 -0.262,0.2 -0.339,0.31c-0.077,0.111 -0.115,0.22 -0.115,0.325c0,0.173 0.067,0.305 0.202,0.394c0.135,0.089 0.315,0.153 0.538,0.192c0.224,0.038 0.478,0.057 0.762,0.057l0.869,0c0.297,0 0.586,0.026 0.871,0.078c0.284,0.052 0.537,0.137 0.761,0.254c0.224,0.118 0.403,0.281 0.538,0.489c0.135,0.207 0.203,0.476 0.203,0.806c0,0.306 -0.076,0.603 -0.227,0.891c-0.152,0.287 -0.369,0.543 -0.654,0.767c-0.284,0.224 -0.631,0.404 -1.041,0.538c-0.409,0.134 -0.873,0.201 -1.39,0.201c-0.517,0 -0.97,-0.051 -1.359,-0.153c-0.389,-0.103 -0.712,-0.241 -0.967,-0.413c-0.257,-0.173 -0.449,-0.372 -0.577,-0.598c-0.128,-0.226 -0.192,-0.463 -0.192,-0.71c0,-0.35 0.111,-0.647 0.332,-0.891c0.221,-0.245 0.525,-0.44 0.911,-0.585c-0.2,-0.092 -0.359,-0.217 -0.478,-0.372c-0.119,-0.157 -0.178,-0.365 -0.178,-0.625c0,-0.102 0.018,-0.208 0.056,-0.318c0.037,-0.109 0.094,-0.217 0.171,-0.323c0.077,-0.108 0.171,-0.21 0.283,-0.308c0.112,-0.097 0.242,-0.183 0.391,-0.258c-0.349,-0.195 -0.623,-0.455 -0.821,-0.779c-0.198,-0.324 -0.297,-0.702 -0.297,-1.135c0,-0.345 0.066,-0.658 0.199,-0.94c0.133,-0.282 0.318,-0.521 0.556,-0.719c0.237,-0.198 0.52,-0.351 0.849,-0.458c0.328,-0.107 0.688,-0.161 1.079,-0.161" style="fill:#fff;fill-rule:nonzero;"/><path d="M91.763,153.648l0,-7.077l0.713,0c0.135,0 0.228,0.026 0.279,0.077c0.052,0.051 0.086,0.14 0.105,0.265l0.084,1.104c0.242,-0.494 0.542,-0.879 0.898,-1.156c0.356,-0.277 0.774,-0.416 1.254,-0.416c0.196,0 0.372,0.023 0.531,0.067c0.158,0.044 0.305,0.106 0.44,0.185l-0.161,0.929c-0.032,0.116 -0.105,0.175 -0.216,0.175c-0.066,0 -0.166,-0.022 -0.301,-0.067c-0.135,-0.044 -0.323,-0.066 -0.566,-0.066c-0.433,0 -0.795,0.126 -1.086,0.377c-0.291,0.252 -0.534,0.617 -0.73,1.097l0,4.506l-1.244,0Z" style="fill:#fff;fill-rule:nonzero;"/><path d="M98.75,152.887c0.219,0 0.419,-0.022 0.601,-0.067c0.181,-0.044 0.353,-0.107 0.513,-0.188c0.161,-0.082 0.315,-0.181 0.461,-0.297c0.147,-0.117 0.29,-0.249 0.43,-0.398l0,-1.46c-0.573,0 -1.06,0.036 -1.46,0.109c-0.401,0.072 -0.727,0.167 -0.978,0.284c-0.252,0.117 -0.435,0.255 -0.549,0.415c-0.114,0.159 -0.171,0.337 -0.171,0.534c0,0.187 0.03,0.349 0.091,0.485c0.061,0.135 0.142,0.247 0.245,0.333c0.102,0.087 0.223,0.15 0.363,0.19c0.139,0.04 0.291,0.06 0.454,0.06m3.228,0.761l-0.553,0c-0.12,0 -0.218,-0.018 -0.293,-0.056c-0.074,-0.037 -0.123,-0.116 -0.146,-0.237l-0.14,-0.657c-0.187,0.168 -0.368,0.318 -0.545,0.451c-0.177,0.133 -0.363,0.244 -0.559,0.335c-0.196,0.091 -0.404,0.16 -0.625,0.206c-0.222,0.047 -0.467,0.07 -0.737,0.07c-0.275,0 -0.533,-0.038 -0.772,-0.115c-0.24,-0.078 -0.449,-0.193 -0.626,-0.347c-0.177,-0.155 -0.318,-0.35 -0.422,-0.586c-0.105,-0.236 -0.157,-0.515 -0.157,-0.837c0,-0.281 0.076,-0.551 0.23,-0.81c0.154,-0.26 0.402,-0.49 0.744,-0.691c0.342,-0.201 0.79,-0.365 1.345,-0.494c0.554,-0.129 1.232,-0.193 2.033,-0.193l0,-0.555c0,-0.553 -0.117,-0.972 -0.353,-1.255c-0.235,-0.284 -0.583,-0.426 -1.045,-0.426c-0.302,0 -0.557,0.039 -0.764,0.116c-0.208,0.077 -0.387,0.163 -0.538,0.258c-0.152,0.096 -0.282,0.182 -0.391,0.259c-0.11,0.076 -0.218,0.115 -0.325,0.115c-0.084,0 -0.158,-0.022 -0.22,-0.067c-0.063,-0.044 -0.113,-0.098 -0.151,-0.164l-0.223,-0.398c0.391,-0.377 0.813,-0.659 1.264,-0.845c0.452,-0.186 0.953,-0.28 1.502,-0.28c0.397,0 0.748,0.066 1.055,0.196c0.308,0.131 0.566,0.312 0.776,0.545c0.209,0.233 0.368,0.515 0.475,0.845c0.107,0.331 0.161,0.694 0.161,1.09l0,4.527Z" style="fill:#fff;fill-rule:nonzero;"/><path d="M215.278,85.994c-4.01,0 -8.019,-1.526 -11.072,-4.579l-49.357,-49.356c-2.035,-2.036 -5.346,-2.036 -7.382,0c-0.985,0.985 -1.528,2.296 -1.528,3.691c0,1.394 0.543,2.704 1.528,3.69l30.668,30.668c2.039,2.039 2.039,5.343 0,7.382c-2.038,2.039 -5.343,2.039 -7.381,0l-30.668,-30.668c-6.106,-6.106 -6.106,-16.04 0,-22.145c6.105,-6.106 16.04,-6.106 22.145,0l49.356,49.356c2.035,2.035 5.346,2.036 7.382,0c0.986,-0.986 1.529,-2.296 1.529,-3.691c0,-1.394 -0.543,-2.705 -1.529,-3.691l-11.501,-11.5c-2.038,-2.039 -2.038,-5.344 0,-7.382c2.038,-2.039 5.344,-2.038 7.382,0l11.501,11.5c2.957,2.958 4.586,6.891 4.586,11.073c0,4.183 -1.629,8.115 -4.586,11.073c-3.053,3.052 -7.064,4.579 -11.073,4.579" style="fill:#ffd64f;fill-rule:nonzero;"/><path d="M210.109,139.879c-4.009,0 -8.019,-1.526 -11.072,-4.578l-16.499,-16.499c-2.038,-2.039 -2.038,-5.344 0,-7.382c2.039,-2.039 5.344,-2.039 7.382,0l16.499,16.499c2.035,2.035 5.346,2.035 7.382,-0.001c0.986,-0.985 1.529,-2.296 1.529,-3.69c0,-1.395 -0.543,-2.706 -1.529,-3.691l-27.783,-27.783c-2.038,-2.038 -2.038,-5.343 0,-7.381c2.038,-2.039 5.344,-2.039 7.382,0l27.782,27.782c6.106,6.105 6.106,16.04 0,22.145c-3.052,3.053 -7.062,4.579 -11.073,4.579" style="fill:#28aae1;fill-rule:nonzero;"/><path d="M187.542,176.366c-4.009,0 -8.02,-1.527 -11.072,-4.579l-15.054,-15.054c-2.039,-2.038 -2.039,-5.343 0,-7.382c2.038,-2.038 5.343,-2.038 7.382,0l15.054,15.054c0.985,0.986 2.296,1.529 3.69,1.529c1.395,0 2.705,-0.543 3.691,-1.529c2.035,-2.035 2.035,-5.347 0,-7.382l-15.66,-15.66c-2.038,-2.038 -2.038,-5.343 0,-7.381c2.038,-2.039 5.343,-2.039 7.382,0l15.66,15.659c6.105,6.106 6.105,16.04 0,22.146c-3.053,3.052 -7.062,4.579 -11.073,4.579" style="fill:#ffd64f;fill-rule:nonzero;"/><path d="M147.576,195.461c-4.183,0 -8.115,-1.629 -11.073,-4.587l-18.711,-18.711c-2.038,-2.038 -2.038,-5.343 0,-7.382c2.038,-2.038 5.343,-2.038 7.382,0l18.711,18.712c0.986,0.986 2.297,1.528 3.691,1.528c1.394,0 2.705,-0.542 3.691,-1.528c2.035,-2.036 2.035,-5.347 0,-7.382l-3.948,-3.948c-2.038,-2.038 -2.038,-5.343 0,-7.382c2.038,-2.038 5.344,-2.038 7.382,0l3.948,3.948c6.105,6.106 6.105,16.04 0,22.145c-2.958,2.958 -6.89,4.587 -11.073,4.587" style="fill:#28aae1;fill-rule:nonzero;"/><path d="M54.656,201.283c0,-1.544 1.252,-2.796 2.796,-2.796c1.544,0 2.796,1.252 2.796,2.796c0,1.544 -1.252,2.796 -2.796,2.796c-1.544,0 -2.796,-1.252 -2.796,-2.796" style="fill:#28aae1;fill-rule:nonzero;"/><path d="M51.869,201.283l8.371,0l0,-4.776l-7.3,0c-0.592,0 -1.071,0.48 -1.071,1.072l0,3.704Z" style="fill:#ffd64f;fill-rule:nonzero;"/><path d="M179.792,18.559l-6.248,-6.248c-1.819,-1.819 -5.868,-6.293 -3.77,-12.311c0,0 -3.848,6.38 2.926,13.155c-6.774,-6.775 -13.154,-2.927 -13.154,-2.927c6.018,-2.098 10.492,1.951 12.311,3.77l6.248,6.248l1.977,0.29l-0.29,-1.977Z" style="fill:#ffd64f;fill-rule:nonzero;"/><path d="M200.72,41.02c2.107,-2.189 2.082,-5.673 -0.076,-7.831c-1.132,-0.932 -1.968,-2.174 -2.405,-3.573l-0.52,-1.668c-1.156,-3.7 -3.872,-6.71 -7.434,-8.237c0,0 -3.835,-1.824 -6.224,-2.98c-2.991,-1.447 -5.199,-1.302 -7.142,0.641c-1.944,1.944 -2.089,4.151 -0.642,7.143c1.156,2.389 2.981,6.224 2.981,6.224c1.526,3.563 4.536,6.278 8.236,7.433l1.668,0.521c1.399,0.437 2.641,1.273 3.573,2.405c2.159,2.158 5.642,2.183 7.831,0.076c0.027,-0.025 0.051,-0.052 0.076,-0.078c0.026,-0.025 0.052,-0.05 0.078,-0.076" style="fill:#28aae1;fill-rule:nonzero;"/><path d="M190.193,19.436c0,1.545 -1.252,2.796 -2.796,2.796c-1.544,0 -2.796,-1.251 -2.796,-2.796c0,-1.544 1.252,-2.796 2.796,-2.796c1.544,0 2.796,1.252 2.796,2.796" style="fill:#ffd64f;fill-rule:nonzero;"/><path d="M181.779,27.851c0,1.544 -1.252,2.795 -2.797,2.795c-1.544,0 -2.796,-1.251 -2.796,-2.795c0,-1.545 1.252,-2.796 2.796,-2.796c1.545,0 2.797,1.251 2.797,2.796" style="fill:#ffd64f;fill-rule:nonzero;"/><path d="M192.98,19.436l-8.371,0l0,4.776l7.3,0c0.592,0 1.071,-0.48 1.071,-1.072l0,-3.704Z" style="fill:#28aae1;fill-rule:nonzero;"/><path d="M178.982,33.426l0,-8.371l4.776,0l0,7.299c0,0.592 -0.48,1.072 -1.072,1.072l-3.704,0Z" style="fill:#28aae1;fill-rule:nonzero;"/><path d="M129.937,101c0.147,0 0.295,0.028 0.443,0.083c0.147,0.055 0.289,0.151 0.424,0.286l2.472,2.601c-1.083,1.414 -2.438,2.481 -4.068,3.201c-1.629,0.719 -3.557,1.079 -5.783,1.079c-2.041,0 -3.871,-0.348 -5.488,-1.043c-1.617,-0.694 -2.988,-1.654 -4.114,-2.878c-1.125,-1.223 -1.989,-2.674 -2.592,-4.353c-0.602,-1.679 -0.903,-3.502 -0.903,-5.469c0,-2.005 0.344,-3.847 1.033,-5.526c0.688,-1.678 1.651,-3.126 2.887,-4.344c1.236,-1.217 2.714,-2.164 4.436,-2.841c1.722,-0.676 3.622,-1.014 5.7,-1.014c1.008,0 1.958,0.089 2.85,0.267c0.892,0.178 1.725,0.424 2.5,0.738c0.775,0.313 1.488,0.689 2.14,1.125c0.651,0.437 1.23,0.92 1.734,1.448l-2.103,2.823c-0.136,0.172 -0.295,0.329 -0.48,0.47c-0.184,0.142 -0.442,0.212 -0.774,0.212c-0.222,0 -0.431,-0.049 -0.628,-0.147c-0.196,-0.098 -0.405,-0.219 -0.627,-0.36c-0.221,-0.141 -0.464,-0.295 -0.729,-0.461c-0.264,-0.166 -0.578,-0.32 -0.94,-0.461c-0.363,-0.142 -0.787,-0.262 -1.273,-0.36c-0.486,-0.099 -1.055,-0.148 -1.706,-0.148c-1.132,0 -2.165,0.2 -3.1,0.6c-0.935,0.4 -1.737,0.971 -2.407,1.715c-0.67,0.745 -1.193,1.645 -1.568,2.703c-0.376,1.058 -0.563,2.245 -0.563,3.561c0,1.377 0.187,2.6 0.563,3.67c0.375,1.07 0.885,1.971 1.531,2.703c0.646,0.732 1.399,1.288 2.26,1.67c0.86,0.381 1.783,0.571 2.767,0.571c0.565,0 1.082,-0.027 1.55,-0.083c0.467,-0.055 0.9,-0.15 1.3,-0.286c0.399,-0.135 0.781,-0.31 1.144,-0.525c0.362,-0.215 0.728,-0.483 1.097,-0.803c0.148,-0.123 0.308,-0.224 0.48,-0.304c0.172,-0.08 0.35,-0.12 0.535,-0.12" style="fill:#fff;fill-rule:nonzero;"/><path d="M143.976,104.007c1.316,0 2.284,-0.464 2.905,-1.393c0.621,-0.928 0.932,-2.34 0.932,-4.234c0,-1.893 -0.311,-3.302 -0.932,-4.224c-0.621,-0.922 -1.589,-1.384 -2.905,-1.384c-1.353,0 -2.343,0.462 -2.97,1.384c-0.627,0.922 -0.941,2.331 -0.941,4.224c0,1.894 0.314,3.306 0.941,4.234c0.627,0.929 1.617,1.393 2.97,1.393m0,-15.478c1.451,0 2.773,0.228 3.966,0.683c1.193,0.455 2.217,1.107 3.071,1.955c0.855,0.849 1.519,1.879 1.993,3.09c0.473,1.212 0.71,2.574 0.71,4.087c0,1.524 -0.237,2.899 -0.71,4.123c-0.474,1.224 -1.138,2.262 -1.993,3.117c-0.854,0.855 -1.878,1.513 -3.071,1.974c-1.193,0.461 -2.515,0.692 -3.966,0.692c-1.464,0 -2.795,-0.231 -3.994,-0.692c-1.199,-0.461 -2.232,-1.119 -3.099,-1.974c-0.867,-0.855 -1.538,-1.893 -2.011,-3.117c-0.474,-1.224 -0.71,-2.599 -0.71,-4.123c0,-1.513 0.236,-2.875 0.71,-4.087c0.473,-1.211 1.144,-2.241 2.011,-3.09c0.867,-0.848 1.9,-1.5 3.099,-1.955c1.199,-0.455 2.53,-0.683 3.994,-0.683" style="fill:#fff;fill-rule:nonzero;"/><path d="M156.188,107.955l0,-19.131l3.542,0c0.357,0 0.655,0.081 0.895,0.24c0.24,0.16 0.408,0.4 0.507,0.72l0.332,1.107c0.369,-0.344 0.75,-0.664 1.144,-0.96c0.394,-0.295 0.814,-0.544 1.264,-0.747c0.448,-0.203 0.934,-0.362 1.457,-0.479c0.523,-0.117 1.091,-0.176 1.706,-0.176c1.046,0 1.971,0.182 2.777,0.545c0.805,0.362 1.485,0.867 2.038,1.512c0.553,0.646 0.972,1.415 1.254,2.306c0.284,0.892 0.425,1.861 0.425,2.906l0,12.157l-5.719,0l0,-12.157c0,-0.935 -0.215,-1.663 -0.646,-2.186c-0.43,-0.523 -1.063,-0.784 -1.9,-0.784c-0.627,0 -1.217,0.135 -1.771,0.406c-0.553,0.27 -1.082,0.633 -1.586,1.088l0,13.633l-5.719,0Z" style="fill:#fff;fill-rule:nonzero;"/><rect x="105.295" y="111.157" width="3.966" height="27.302" style="fill:#fff;"/><path d="M115.48,111.157l0,15.828l0.848,0c0.271,0 0.492,-0.037 0.665,-0.111c0.171,-0.074 0.35,-0.227 0.534,-0.461l5.276,-6.032c0.185,-0.246 0.388,-0.431 0.609,-0.554c0.222,-0.123 0.504,-0.184 0.849,-0.184l3.597,0l-6.346,7.157c-0.369,0.48 -0.775,0.861 -1.218,1.144c0.246,0.172 0.462,0.366 0.646,0.581c0.185,0.216 0.363,0.458 0.535,0.729l6.77,9.205l-3.542,0c-0.32,0 -0.593,-0.052 -0.82,-0.157c-0.228,-0.104 -0.428,-0.298 -0.6,-0.581l-5.442,-7.379c-0.185,-0.283 -0.369,-0.464 -0.553,-0.544c-0.185,-0.08 -0.462,-0.12 -0.83,-0.12l-0.978,0l0,8.781l-3.967,0l0,-27.302l3.967,0Z" style="fill:#fff;fill-rule:nonzero;"/><path d="M139.831,130.232c-1.415,0.049 -2.608,0.163 -3.579,0.341c-0.972,0.178 -1.759,0.406 -2.361,0.682c-0.603,0.277 -1.037,0.606 -1.301,0.987c-0.265,0.382 -0.397,0.8 -0.397,1.255c0,0.442 0.071,0.821 0.213,1.134c0.141,0.314 0.338,0.572 0.59,0.775c0.252,0.203 0.547,0.35 0.885,0.443c0.339,0.092 0.711,0.138 1.116,0.138c1.033,0 1.922,-0.194 2.666,-0.581c0.744,-0.387 1.467,-0.95 2.168,-1.688l0,-3.486Zm-10.515,-7.97c2.127,-1.98 4.66,-2.97 7.6,-2.97c1.082,0 2.044,0.175 2.887,0.526c0.842,0.351 1.55,0.846 2.121,1.485c0.573,0.639 1.009,1.399 1.31,2.278c0.301,0.88 0.452,1.854 0.452,2.924l0,11.954l-1.771,0c-0.381,0 -0.67,-0.058 -0.867,-0.176c-0.197,-0.116 -0.363,-0.352 -0.498,-0.71l-0.388,-1.531c-0.479,0.431 -0.953,0.816 -1.42,1.153c-0.467,0.339 -0.95,0.625 -1.448,0.858c-0.498,0.234 -1.033,0.409 -1.605,0.526c-0.572,0.117 -1.202,0.175 -1.891,0.175c-0.762,0 -1.473,-0.104 -2.131,-0.313c-0.658,-0.209 -1.226,-0.526 -1.706,-0.951c-0.48,-0.423 -0.858,-0.95 -1.134,-1.577c-0.277,-0.627 -0.415,-1.365 -0.415,-2.213c0,-0.726 0.193,-1.433 0.581,-2.122c0.387,-0.688 1.026,-1.306 1.918,-1.854c0.892,-0.547 2.066,-0.999 3.524,-1.356c1.457,-0.356 3.256,-0.559 5.396,-0.608l0,-1.255c0,-1.353 -0.289,-2.361 -0.867,-3.025c-0.579,-0.664 -1.427,-0.996 -2.546,-0.996c-0.763,0 -1.402,0.095 -1.919,0.286c-0.516,0.191 -0.965,0.396 -1.347,0.618c-0.381,0.221 -0.719,0.427 -1.014,0.618c-0.295,0.19 -0.609,0.285 -0.941,0.285c-0.27,0 -0.501,-0.07 -0.692,-0.212c-0.19,-0.141 -0.347,-0.316 -0.47,-0.525l-0.719,-1.292Z" style="fill:#fff;fill-rule:nonzero;"/><path d="M149.701,122.133c0.407,-0.418 0.827,-0.796 1.264,-1.134c0.437,-0.339 0.901,-0.63 1.393,-0.876c0.491,-0.246 1.015,-0.437 1.568,-0.572c0.553,-0.136 1.156,-0.204 1.808,-0.204c1.033,0 1.94,0.173 2.721,0.517c0.781,0.345 1.439,0.83 1.974,1.457c0.535,0.628 0.937,1.381 1.208,2.26c0.27,0.88 0.406,1.848 0.406,2.906l0,11.972l-3.948,0l0,-11.972c0,-1.267 -0.292,-2.251 -0.876,-2.952c-0.584,-0.701 -1.473,-1.052 -2.666,-1.052c-0.885,0 -1.706,0.203 -2.463,0.61c-0.756,0.405 -1.466,0.959 -2.13,1.66l0,13.706l-3.967,0l0,-18.816l2.399,0c0.541,0 0.885,0.252 1.033,0.756l0.276,1.734Z" style="fill:#fff;fill-rule:nonzero;"/><path d="M106.086,152.74c0.405,0 0.76,-0.093 1.065,-0.279c0.305,-0.186 0.586,-0.45 0.842,-0.79l0,-3.424c-0.228,-0.307 -0.479,-0.522 -0.751,-0.645c-0.273,-0.124 -0.574,-0.186 -0.905,-0.186c-0.662,0 -1.169,0.236 -1.523,0.706c-0.354,0.471 -0.531,1.142 -0.531,2.012c0,0.461 0.04,0.856 0.119,1.184c0.079,0.329 0.195,0.599 0.349,0.811c0.154,0.212 0.343,0.367 0.566,0.464c0.223,0.098 0.48,0.147 0.769,0.147m2.41,0.908c-0.177,0 -0.289,-0.086 -0.336,-0.258l-0.111,-0.86c-0.303,0.368 -0.649,0.663 -1.038,0.884c-0.389,0.222 -0.834,0.332 -1.338,0.332c-0.405,0 -0.773,-0.078 -1.104,-0.234c-0.33,-0.156 -0.612,-0.385 -0.845,-0.688c-0.233,-0.303 -0.412,-0.68 -0.538,-1.132c-0.125,-0.452 -0.188,-0.971 -0.188,-1.558c0,-0.521 0.069,-1.007 0.209,-1.457c0.14,-0.449 0.341,-0.839 0.604,-1.17c0.264,-0.33 0.584,-0.59 0.961,-0.779c0.377,-0.188 0.806,-0.283 1.286,-0.283c0.433,0 0.803,0.073 1.111,0.22c0.307,0.147 0.582,0.353 0.824,0.619l0,-3.927l1.243,0l0,10.291l-0.74,0Z" style="fill:#fff;fill-rule:nonzero;"/><path d="M113.806,147.374c-0.601,0 -1.074,0.174 -1.419,0.521c-0.345,0.347 -0.559,0.828 -0.642,1.443l3.849,0c0,-0.289 -0.04,-0.553 -0.119,-0.793c-0.079,-0.24 -0.195,-0.447 -0.349,-0.622c-0.154,-0.174 -0.341,-0.31 -0.562,-0.405c-0.222,-0.096 -0.475,-0.144 -0.758,-0.144m-0.028,-0.914c0.423,0 0.814,0.07 1.173,0.212c0.359,0.143 0.669,0.347 0.93,0.615c0.26,0.268 0.464,0.599 0.611,0.992c0.147,0.394 0.22,0.842 0.22,1.345c0,0.196 -0.021,0.326 -0.063,0.391c-0.042,0.065 -0.121,0.098 -0.238,0.098l-4.709,0c0.01,0.447 0.071,0.836 0.182,1.167c0.112,0.331 0.266,0.607 0.461,0.828c0.196,0.221 0.429,0.387 0.699,0.496c0.27,0.11 0.573,0.164 0.908,0.164c0.312,0 0.581,-0.036 0.807,-0.108c0.226,-0.072 0.42,-0.15 0.584,-0.234c0.162,-0.084 0.299,-0.162 0.408,-0.234c0.11,-0.072 0.204,-0.109 0.283,-0.109c0.103,0 0.182,0.04 0.238,0.119l0.349,0.454c-0.154,0.187 -0.338,0.349 -0.552,0.486c-0.214,0.137 -0.444,0.25 -0.688,0.339c-0.245,0.088 -0.498,0.155 -0.758,0.199c-0.261,0.044 -0.519,0.066 -0.776,0.066c-0.489,0 -0.939,-0.083 -1.351,-0.248c-0.413,-0.165 -0.769,-0.407 -1.069,-0.727c-0.301,-0.318 -0.535,-0.713 -0.702,-1.184c-0.168,-0.47 -0.252,-1.01 -0.252,-1.62c0,-0.494 0.076,-0.955 0.227,-1.384c0.151,-0.428 0.369,-0.8 0.653,-1.114c0.284,-0.315 0.631,-0.561 1.041,-0.741c0.41,-0.179 0.871,-0.268 1.384,-0.268" style="fill:#fff;fill-rule:nonzero;"/><path d="M123.474,143.525c0.424,0 0.82,0.063 1.188,0.189c0.368,0.125 0.686,0.308 0.954,0.548c0.268,0.24 0.479,0.532 0.632,0.877c0.154,0.344 0.231,0.736 0.231,1.174c0,0.372 -0.056,0.717 -0.168,1.033c-0.112,0.317 -0.263,0.621 -0.454,0.912c-0.191,0.292 -0.411,0.573 -0.66,0.846c-0.25,0.272 -0.514,0.55 -0.793,0.834l-2.634,2.697c0.186,-0.051 0.375,-0.091 0.566,-0.122c0.191,-0.031 0.374,-0.045 0.552,-0.045l3.353,0c0.135,0 0.242,0.039 0.321,0.118c0.08,0.08 0.119,0.182 0.119,0.308l0,0.754l-6.679,0l0,-0.426c0,-0.088 0.017,-0.179 0.053,-0.272c0.035,-0.093 0.091,-0.179 0.17,-0.259l3.207,-3.221c0.266,-0.269 0.508,-0.529 0.727,-0.779c0.219,-0.249 0.406,-0.499 0.563,-0.751c0.156,-0.251 0.276,-0.506 0.359,-0.765c0.084,-0.258 0.126,-0.534 0.126,-0.827c0,-0.294 -0.047,-0.551 -0.14,-0.773c-0.093,-0.221 -0.221,-0.403 -0.384,-0.548c-0.163,-0.144 -0.354,-0.253 -0.573,-0.325c-0.219,-0.072 -0.454,-0.108 -0.706,-0.108c-0.251,0 -0.484,0.037 -0.698,0.112c-0.214,0.074 -0.404,0.178 -0.569,0.31c-0.166,0.134 -0.306,0.29 -0.42,0.472c-0.114,0.182 -0.194,0.382 -0.241,0.601c-0.037,0.135 -0.093,0.233 -0.167,0.293c-0.075,0.061 -0.173,0.091 -0.294,0.091c-0.023,0 -0.048,-0.001 -0.073,-0.003c-0.026,-0.003 -0.055,-0.006 -0.087,-0.011l-0.65,-0.111c0.065,-0.457 0.191,-0.861 0.377,-1.213c0.186,-0.351 0.423,-0.646 0.709,-0.883c0.287,-0.238 0.615,-0.418 0.985,-0.542c0.371,-0.123 0.77,-0.185 1.198,-0.185" style="fill:#fff;fill-rule:nonzero;"/><path d="M133.423,148.646c0,-0.764 -0.064,-1.405 -0.192,-1.925c-0.128,-0.519 -0.3,-0.937 -0.517,-1.254c-0.217,-0.317 -0.467,-0.543 -0.751,-0.681c-0.284,-0.137 -0.58,-0.206 -0.887,-0.206c-0.308,0 -0.604,0.069 -0.888,0.206c-0.284,0.138 -0.533,0.364 -0.747,0.681c-0.215,0.317 -0.386,0.735 -0.514,1.254c-0.128,0.52 -0.192,1.161 -0.192,1.925c0,0.764 0.064,1.404 0.192,1.921c0.128,0.517 0.299,0.934 0.514,1.251c0.214,0.317 0.463,0.544 0.747,0.681c0.284,0.137 0.58,0.206 0.888,0.206c0.307,0 0.603,-0.069 0.887,-0.206c0.284,-0.137 0.534,-0.364 0.751,-0.681c0.217,-0.317 0.389,-0.734 0.517,-1.251c0.128,-0.517 0.192,-1.157 0.192,-1.921m1.292,0c0,0.876 -0.094,1.634 -0.282,2.274c-0.189,0.641 -0.446,1.17 -0.772,1.59c-0.326,0.419 -0.712,0.731 -1.157,0.936c-0.445,0.205 -0.921,0.307 -1.428,0.307c-0.513,0 -0.989,-0.102 -1.429,-0.307c-0.44,-0.205 -0.824,-0.517 -1.149,-0.936c-0.327,-0.42 -0.582,-0.949 -0.769,-1.59c-0.186,-0.64 -0.279,-1.398 -0.279,-2.274c0,-0.876 0.093,-1.635 0.279,-2.277c0.187,-0.643 0.442,-1.175 0.769,-1.597c0.325,-0.422 0.709,-0.735 1.149,-0.94c0.44,-0.204 0.916,-0.307 1.429,-0.307c0.507,0 0.983,0.103 1.428,0.307c0.445,0.205 0.831,0.518 1.157,0.94c0.326,0.422 0.583,0.954 0.772,1.597c0.188,0.642 0.282,1.401 0.282,2.277" style="fill:#fff;fill-rule:nonzero;"/><path d="M136.79,152.698l2.152,0l0,-6.825c0,-0.205 0.007,-0.413 0.021,-0.623l-1.788,1.531c-0.047,0.037 -0.094,0.064 -0.14,0.08c-0.047,0.016 -0.091,0.024 -0.133,0.024c-0.07,0 -0.133,-0.015 -0.188,-0.045c-0.056,-0.03 -0.098,-0.067 -0.126,-0.108l-0.391,-0.538l2.976,-2.578l1.013,0l0,9.082l1.97,0l0,0.95l-5.366,0l0,-0.95Z" style="fill:#fff;fill-rule:nonzero;"/><path d="M145.277,146.646c0,0.59 0.158,1.043 0.474,1.359c0.316,0.316 0.758,0.474 1.325,0.474c0.305,0 0.574,-0.048 0.807,-0.145c0.232,-0.097 0.429,-0.227 0.591,-0.391c0.161,-0.163 0.284,-0.355 0.367,-0.574c0.083,-0.219 0.124,-0.454 0.124,-0.703c0,-0.29 -0.045,-0.55 -0.135,-0.778c-0.09,-0.229 -0.216,-0.423 -0.38,-0.585c-0.164,-0.161 -0.359,-0.285 -0.585,-0.37c-0.226,-0.085 -0.473,-0.128 -0.74,-0.128c-0.282,0 -0.535,0.046 -0.762,0.138c-0.226,0.093 -0.419,0.221 -0.581,0.384c-0.161,0.164 -0.286,0.358 -0.373,0.582c-0.088,0.224 -0.132,0.469 -0.132,0.737m2.554,3.093c0.092,-0.116 0.177,-0.225 0.256,-0.329c0.078,-0.104 0.152,-0.208 0.221,-0.315c-0.24,0.171 -0.507,0.301 -0.803,0.391c-0.295,0.09 -0.609,0.135 -0.941,0.135c-0.36,0 -0.706,-0.061 -1.038,-0.183c-0.332,-0.123 -0.627,-0.305 -0.885,-0.547c-0.259,-0.242 -0.465,-0.542 -0.62,-0.9c-0.154,-0.357 -0.232,-0.769 -0.232,-1.235c0,-0.438 0.082,-0.851 0.246,-1.238c0.164,-0.388 0.393,-0.726 0.689,-1.014c0.295,-0.288 0.648,-0.515 1.058,-0.682c0.411,-0.166 0.865,-0.249 1.363,-0.249c0.494,0 0.942,0.08 1.343,0.239c0.401,0.159 0.743,0.383 1.024,0.671c0.281,0.289 0.498,0.632 0.651,1.031c0.152,0.399 0.228,0.839 0.228,1.318c0,0.3 -0.027,0.584 -0.08,0.852c-0.053,0.267 -0.129,0.527 -0.228,0.778c-0.099,0.251 -0.219,0.498 -0.36,0.74c-0.141,0.243 -0.299,0.488 -0.474,0.737l-2.346,3.363c-0.069,0.102 -0.172,0.185 -0.308,0.249c-0.136,0.065 -0.289,0.097 -0.46,0.097l-1.363,0l3.059,-3.909Z" style="fill:#fff;fill-rule:nonzero;"/></svg>