<?xml version="1.0" encoding="utf-8"?>
<!-- Generator: Adobe Illustrator 23.0.1, SVG Export Plug-In . SVG Version: 6.00 Build 0)  -->
<svg version="1.1" id="Layer_1" xmlns="http://www.w3.org/2000/svg" xmlns:xlink="http://www.w3.org/1999/xlink" x="0px" y="0px"
	 viewBox="0 0 1000 404" style="enable-background:new 0 0 1000 404;" xml:space="preserve">
<style type="text/css">
	.st0{fill:url(#path106_1_);}
	.st1{fill:url(#path108_1_);}
	.st2{fill:#FFFFFF;}
	.st3{fill-rule:evenodd;clip-rule:evenodd;fill:url(#rect165_1_);}
</style>
<g id="Document" transform="matrix(1,0,0,-1,-275.25044,-217.63)">
	<g id="Spread" transform="translate(0,-1559.06)">
		<g id="Logo">
			<g id="Group">
				<g id="Group_1">
					<g id="Group_2">
						
							<linearGradient id="path106_1_" gradientUnits="userSpaceOnUse" x1="535.9672" y1="393.7564" x2="711.3154" y2="393.7564" gradientTransform="matrix(0.755 -0.6558 0.6558 0.755 -350.9715 1336.8187)">
							<stop  offset="0" style="stop-color:#5A9FD4"/>
							<stop  offset="1" style="stop-color:#306998"/>
						</linearGradient>
						<path id="path106" class="st0" d="M436.4,1289.5c-9.9,0-19.3-0.9-27.7-2.4c-24.5-4.3-28.9-13.4-28.9-30.1V1235h57.9v-7.4
							h-57.9h-21.7c-16.8,0-31.6-10.1-36.2-29.3c-5.3-22-5.5-35.8,0-58.8c4.1-17.1,13.9-29.3,30.8-29.3h19.9v26.4
							c0,19.1,16.5,36,36.2,36h57.8c16.1,0,28.9,13.2,28.9,29.4v55.1c0,15.7-13.2,27.5-28.9,30.1
							C456.6,1288.8,446.3,1289.5,436.4,1289.5z M405.1,1271.7c6,0,10.9-5,10.9-11.1c0-6.1-4.9-11-10.9-11c-6,0-10.9,4.9-10.9,11
							C394.2,1266.8,399.1,1271.7,405.1,1271.7z"/>
						
							<linearGradient id="path108_1_" gradientUnits="userSpaceOnUse" x1="703.2367" y1="779.4833" x2="785.6631" y2="779.4833" gradientTransform="matrix(-0.5735 0.8192 -0.8192 -0.5735 1537.5398 968.7118)">
							<stop  offset="0" style="stop-color:#FFD43B"/>
							<stop  offset="1" style="stop-color:#FFE873"/>
						</linearGradient>
						<path id="path108" class="st1" d="M502.7,1227.6v-25.7c0-19.9-16.9-36.7-36.2-36.7h-57.8c-15.8,0-28.9-13.6-28.9-29.4v-55.1
							c0-15.7,13.6-24.9,28.9-29.4c18.3-5.4,35.9-6.4,57.8,0c14.6,4.2,28.9,12.7,28.9,29.4v22.1h-57.8v7.4h57.8h28.9
							c16.8,0,23.1,11.7,28.9,29.3c6,18.1,5.8,35.6,0,58.8c-4.2,16.7-12.1,29.3-28.9,29.3H502.7z M470.2,1088.1
							c6,0,10.9-4.9,10.9-11c0-6.1-4.9-11.1-10.9-11.1c-6,0-10.9,5-10.9,11.1C459.3,1083.1,464.2,1088.1,470.2,1088.1z"/>
					</g>
				</g>
			</g>
			<g id="Group_3">
				<g id="Group_4">
					<path id="path113" class="st2" d="M704.5,1166.3c0-15.4-3.6-28.2-10.9-38.3c-8.1-11.5-19.4-17.4-33.7-17.8
						c-10.8-0.3-22,3-33.5,10.2v-65.7l-18.3,6.6v145.9c3.1,3.7,7,6.9,11.7,9.6c11,6.4,24.4,9.7,40.2,9.9l0.3-0.3
						c14.4,0.2,25.5-5.8,33.3-17.8C700.8,1197.7,704.5,1183.6,704.5,1166.3L704.5,1166.3z M683.2,1167.6c0,30.3-8.7,45.8-26,46.7
						c-6.9,0.3-13.6-0.8-20.2-3.3c-5.2-1.9-8.8-3.7-10.6-5.6v-72.3c11.1-6.9,21-10.1,29.5-9.6
						C674.1,1124.6,683.2,1139.3,683.2,1167.6L683.2,1167.6z"/>
					<path id="path115" class="st2" d="M818,1123.2c0-20.6-2.1-34.9-6.2-42.9c-4.1-8-12.1-14.3-23.7-19c-9.5-3.7-19.7-5.7-30.7-6.1
						l-3,11.7c11.2,1.5,19,3,23.6,4.6c9,3,15.1,7.7,18.5,14c2.7,5.1,4.1,14.8,4.1,29.2c0,3.2,0,4.8,0,4.8c-12.7-5.8-26-8.6-39.8-8.6
						c-9.1,0-17.2,2.9-24.1,8.6c-7.8,6.3-11.7,14.2-11.7,23.9v77.2l18.8,6.3v-77.7c0-8.3,2.7-14.7,8-19.2c5.3-4.5,12.2-6.6,20.7-6.5
						c8.5,0.2,17.5,3.5,27.2,9.9v90.6H818V1123.2z"/>
					<path id="path117" class="st2" d="M890.4,1111.2c-2.2-0.2-4.2-0.3-6.1-0.3c-10.5,0-18.7,2.5-24.5,7.5c-5.8,5-8.8,11.9-8.8,20.7
						v72.8h-12.7v12H851v31l18.5,6.6v-37.6h20.8v-12h-20.8v-72.3c0-6.9,1.9-11.8,5.6-14.7c3.2-2.4,8.3-3.7,15.2-4.1V1111.2z"/>
					<path id="path119" class="st2" d="M1006,1112.8h-18.8v71.5c0,7.3-1.7,13.5-5.1,18.8c-3.9,5.9-9.3,8.9-16.2,8.9
						c-8.5,0-19-4.5-31.7-13.4v-85.8h-18.5v171.1l18.5,5.8v-77.9c11.8,8.6,24.8,12.9,38.8,12.9c9.8,0,17.8-3.3,23.9-9.9
						c6.1-6.6,9.1-14.8,9.1-24.6L1006,1112.8z"/>
					<path id="path121" class="st2" d="M1128.1,1170.4c0-16.6-4.2-30.4-12.7-41.4c-9.3-12.4-22.2-18.5-38.6-18.5
						c-16.3,0-28.9,6.2-38.1,18.5c-8.3,11-12.4,24.8-12.4,41.4c0,15.6,4.5,28.7,13.5,39.3c9.5,11.3,21.9,17,37.3,17
						c15.4,0,27.9-5.7,37.6-17C1123.6,1199.1,1128.1,1185.9,1128.1,1170.4L1128.1,1170.4z M1107.8,1170.4c0,11.7-2.2,21.3-6.6,28.9
						c-5.2,9.3-13.4,14.2-24.4,14.7c-20.3-1.2-30.5-15.7-30.5-43.6l0,0c0-12.9,2.1-23.6,6.4-32.3c5.4-11,13.6-16.4,24.5-16.3
						C1097.6,1122.1,1107.8,1138.2,1107.8,1170.4L1107.8,1170.4z"/>
					<path id="path123" class="st2" d="M1238,1112.8h-18.5v75.6c0,8.3-2.5,14.8-7.5,19.4c-5,4.6-11.6,6.9-19.9,6.7
						c-8.8-0.2-17.2-3-25.1-8.6v-93.1h-18.5v95.4c10.7,7.8,20.5,12.9,29.4,15.2c8.5,2.2,15.9,3.3,22.3,3.3c4.4,0,8.5-0.4,12.4-1.3
						c7.3-1.7,13.2-4.8,17.8-9.4c5.1-5.1,7.6-11.2,7.6-18.3L1238,1112.8z"/>
				</g>
			</g>
			<g id="Group_5">
				<g id="Group_6">
					<path id="path127" class="st2" d="M635.7,1005c0-4-1.9-7.4-5.8-10V995c-2.7-1.7-5.8-2.5-9.3-2.5c-2.4,0-4.8,0.5-7.3,1.6
						c-2.3,0.9-4.2,2.1-5.7,3.5l2.1,3.4c3.5-2.9,7.2-4.4,11-4.3c2.6,0,4.7,0.6,6.3,1.7c2.1,1.6,3.1,3.5,3.1,5.9
						c0,1.8-0.6,3.3-1.7,4.4c-1.2,1.1-3,2.1-5.6,3l-4.2,1.4c-3.6,1.2-6.2,2.5-7.5,4c-1.6,1.7-2.5,4-2.5,6.7c0,3.6,1.2,6.4,3.7,8.7
						c2.5,2.2,5.7,3.3,9.8,3.3c3.6,0,7.1-1.3,10.6-3.8l-2.1-3.2c-2.7,2-5.5,3-8.3,3c-2.6,0-4.6-0.6-6.1-1.9
						c-1.5-1.2-2.2-2.9-2.3-5.1c0-2.8,2.4-5,7.2-6.6l4.7-1.5c3.4-1.1,5.9-2.6,7.5-4.5C634.9,1010.4,635.7,1008,635.7,1005
						L635.7,1005z"/>
					<path id="path129" class="st2" d="M675.9,1014.6L675.9,1014.6c0-5.7-1.5-10.7-4.6-15c-3.5-4.8-8-7.3-13.5-7.3
						c-5.5,0-10,2.4-13.5,7.3c-3.1,4.3-4.6,9.3-4.6,15c0,5.6,1.6,10.5,4.7,14.6c3.4,4.4,7.9,6.7,13.3,6.7c5.5,0,10-2.2,13.4-6.7
						C674.3,1025.1,675.9,1020.2,675.9,1014.6z M670.3,1014.6c0,4.5-1,8.5-3.1,11.8c-2.4,3.8-5.5,5.7-9.4,5.7c-4,0-7.1-1.9-9.5-5.7
						c-2.1-3.3-3.1-7.3-3.1-11.8c0-4.9,1.1-9.1,3.2-12.6c2.4-3.9,5.5-5.9,9.3-5.9c3.8,0,6.9,2,9.3,5.9
						C669.2,1005.5,670.3,1009.7,670.3,1014.6z"/>
					<path id="path131" class="st2" d="M705.3,1034.9l-1.7-3.4h-16.8v-14.3h14.1l-1.8-3.3h-12.3v-20.9h-4.8v42H705.3z"/>
					<path id="path133" class="st2" d="M736.4,1031.7h-12.3v-38.8h-4.9v38.8h-12.5l1.5,3.3l28.3,0.1V1031.7z"/>
					<path id="path135" class="st2" d="M789.1,1035.2l-11-41.6l-3.8-1.3l-10.2,36.3l-9.1-35l-3.8-1.3l-11.7,41.8l4.7,1.7l9.4-34
						l8.9,32.3l4.8,1.7l9.4-34.1l9.5,34.1L789.1,1035.2z"/>
					<path id="path137" class="st2" d="M823.4,992.9h-5.1l-4.5,13.1h-16.2l-4.8-13.1h-3.7l15.2,41.4l4.7,1.5L823.4,992.9z
						 M812.8,1009.1l-6.7,19.9l-7.4-19.9H812.8z"/>
					<path id="path139" class="st2" d="M853.5,992.9h-5.9l-11.1,19.7H833v-19.7h-4.9v42.1h13.3c3.3,0,6.2-1.1,8.5-3.3
						c2.3-2.2,3.5-4.9,3.5-8c0-3.2-1.1-5.9-3.2-7.9c-2.1-2.1-4.8-3.1-8-3.1L853.5,992.9z M848.4,1023.8c0,2-0.8,3.8-2.3,5.4
						c-1.5,1.6-3.3,2.4-5.3,2.4H833V1016h7.7c2.3,0,4.1,0.7,5.5,2.2C847.7,1019.7,848.4,1021.6,848.4,1023.8L848.4,1023.8z"/>
					<path id="path141" class="st2" d="M883,1035l-1.7-3.4h-16.9v-14.4h14l-1.7-3.3h-12.3v-17.6h18.1v-3.3h-23v42L883,1035z"/>
					<path id="path143" class="st2" d="M932.7,1034.9l-1.7-3.4h-16.8v-14.3h14.1l-1.8-3.3h-12.3v-20.9h-4.8v42H932.7z"/>
					<path id="path145" class="st2" d="M970.2,1014.6L970.2,1014.6c0-5.7-1.5-10.7-4.6-15c-3.5-4.8-8-7.3-13.5-7.3
						c-5.5,0-10,2.4-13.5,7.3c-3.1,4.3-4.6,9.3-4.6,15c0,5.6,1.6,10.5,4.7,14.6c3.4,4.4,7.9,6.7,13.3,6.7c5.5,0,10-2.2,13.4-6.7
						C968.7,1025.1,970.2,1020.2,970.2,1014.6L970.2,1014.6z M964.6,1014.6c0,4.5-1,8.5-3.1,11.8c-2.4,3.8-5.5,5.7-9.4,5.7
						c-4,0-7.1-1.9-9.5-5.7c-2.1-3.3-3.1-7.3-3.1-11.8c0-4.9,1.1-9.1,3.2-12.6c2.4-3.9,5.5-5.9,9.3-5.9c3.8,0,6.9,2,9.3,5.9
						C963.6,1005.5,964.6,1009.7,964.6,1014.6z"/>
					<path id="path147" class="st2" d="M1006.3,1007.2c0-4.4-1.5-7.9-4.4-10.7c-2.9-2.8-6.6-4.2-11-4.2c-4.3,0-7.8,1.4-10.7,4.1
						c-2.9,2.8-4.3,6.3-4.3,10.7v27l5,1.7v-27.9c0-7.8,3.5-11.7,10.4-11.6c3.5,0,6.2,1.1,8.2,3.2c2,2.1,3,5,3,8.5v26.9h3.8V1007.2z"
						/>
					<path id="path149" class="st2" d="M1045.8,992.9h-4.8l-23.5,34.4v-34.4h-3.4v41.6l3.9,1.3l24.6-35.9v35h3.3L1045.8,992.9z"/>
					<path id="path151" class="st2" d="M1083.8,1013.2c0-5.5-1.5-10.2-4.5-14.3c-3.2-4.4-7.3-6.5-12.2-6.5c-4.6,0-9,1.7-13.3,5.2
						v37.4l13.5-0.1c5.4,0,9.6-2.4,12.6-6.9C1082.5,1023.9,1083.8,1019,1083.8,1013.2L1083.8,1013.2z M1078.2,1012.7
						c0,12.6-4.8,18.9-14.3,18.9h-5.3v-32.8c2.1-2,4.6-2.9,7.3-2.9c3.8,0,6.9,1.8,9.2,5.5
						C1077.2,1004.6,1078.2,1008.4,1078.2,1012.7z"/>
					<path id="path153" class="st2" d="M1120.8,992.9h-5.1l-4.5,13.1h-16.2l-4.8-13.1h-3.7l15.2,41.4l4.7,1.5L1120.8,992.9z
						 M1110.2,1009.1l-6.7,19.9l-7.4-19.9H1110.2z"/>
					<path id="path155" class="st2" d="M1148,1031.7h-12.3v-38.8h-4.9v38.8h-12.5l1.5,3.3l28.3,0.1V1031.7z"/>
					<path id="path157" class="st2" d="M1158.2,992.9h-4.9v41.2l4.9,1.7V992.9z"/>
					<path id="path159" class="st2" d="M1200.4,1014.6L1200.4,1014.6c0-5.7-1.5-10.7-4.6-15c-3.5-4.8-8-7.3-13.5-7.3
						c-5.5,0-10,2.4-13.5,7.3c-3.1,4.3-4.6,9.3-4.6,15c0,5.6,1.6,10.5,4.7,14.6c3.4,4.4,7.9,6.7,13.3,6.7c5.5,0,10-2.2,13.4-6.7
						C1198.9,1025.1,1200.4,1020.2,1200.4,1014.6L1200.4,1014.6z M1194.8,1014.6c0,4.5-1,8.5-3.1,11.8c-2.4,3.8-5.5,5.7-9.4,5.7
						c-4,0-7.1-1.9-9.5-5.7c-2.1-3.3-3.1-7.3-3.1-11.8c0-4.9,1.1-9.1,3.2-12.6c2.4-3.9,5.5-5.9,9.3-5.9c3.8,0,6.9,2,9.3,5.9
						C1193.8,1005.5,1194.8,1009.7,1194.8,1014.6L1194.8,1014.6z"/>
					<path id="path161" class="st2" d="M1238.3,992.9h-4.8l-23.5,34.4v-34.4h-3.4v41.6l3.9,1.3l24.6-35.9v35h3.3V992.9z"/>
				</g>
			</g>
			
				<linearGradient id="rect165_1_" gradientUnits="userSpaceOnUse" x1="-1747.3561" y1="904.1718" x2="-1554.1188" y2="904.1718" gradientTransform="matrix(1 1.588576e-04 -6.269547e-06 1 2792.0466 169.628)">
				<stop  offset="0" style="stop-color:#4C8CBF"/>
				<stop  offset="1" style="stop-color:#306898"/>
			</linearGradient>
			<path id="rect165" class="st3" d="M1237.9,1070.8l0,5.4c0,3.6-2.9,6.6-6.6,6.6l-373.3-0.1c-3.6,0-6.6-2.9-6.6-6.6l0-5.4
				c0-3.6,2.9-6.6,6.6-6.6l373.3,0.1C1235,1064.3,1237.9,1067.2,1237.9,1070.8z"/>
		</g>
		<g id="Layer_1_1_">
		</g>
	</g>
</g>
</svg>
